<?xml version="1.0" standalone="no"?>
<!DOCTYPE svg PUBLIC "-//W3C//DTD SVG 1.1//EN" "http://www.w3.org/Graphics/SVG/1.1/DTD/svg11.dtd" >
<svg xmlns="http://www.w3.org/2000/svg" xmlns:xlink="http://www.w3.org/1999/xlink" version="1.1">
<metadata></metadata>
<defs>
<font id="manifold_cflight" horiz-adv-x="1185" >
<font-face units-per-em="2048" ascent="1638" descent="-410" />
<missing-glyph horiz-adv-x="614" />
<glyph unicode="&#xfb01;" horiz-adv-x="1138" d="M82 958v35q0 31 31 31h96v106q0 172 79.5 264.5t231.5 92.5h125q31 0 31 -31v-35q0 -30 -31 -30h-125q-112 0 -161.5 -63.5t-49.5 -197.5v-106h617h39q30 0 30 -31v-35v-6v-921q0 -31 -30 -31h-39q-31 0 -31 31v897h-586v-897q0 -31 -30 -31h-39q-31 0 -31 31v897h-96 q-31 0 -31 30zM899 1358v45q0 31 31 31h33q30 0 30 -31v-45q0 -31 -30 -31h-33q-31 0 -31 31z" />
<glyph unicode="&#xfb02;" horiz-adv-x="1093" d="M82 958v35q0 31 31 31h96v106q0 172 79.5 264.5t231.5 92.5h125h326v-78v-6v-1372q0 -31 -31 -31h-39q-31 0 -31 31v1360h-237h-113q-112 0 -161.5 -63.5t-49.5 -197.5v-106h316q30 0 30 -31v-35q0 -30 -30 -30h-316v-897q0 -31 -30 -31h-39q-31 0 -31 31v897h-96 q-31 0 -31 30z" />
<glyph horiz-adv-x="0" />
<glyph horiz-adv-x="682" />
<glyph unicode=" "  horiz-adv-x="614" />
<glyph unicode="&#x09;" horiz-adv-x="614" />
<glyph unicode="&#xa0;" horiz-adv-x="614" />
<glyph unicode="!" horiz-adv-x="425" d="M154 31v55q0 31 30 31h58q30 0 30 -31v-55q0 -31 -30 -31h-58q-30 0 -30 31zM162 362v1041q0 31 31 31h40q31 0 31 -31v-1041q0 -30 -31 -30h-40q-31 0 -31 30z" />
<glyph unicode="&#x22;" horiz-adv-x="696" d="M133 877v526q0 31 31 31h39q30 0 30 -31v-526q0 -31 -30 -31h-39q-31 0 -31 31zM463 877v526q0 31 31 31h38q31 0 31 -31v-526q0 -31 -31 -31h-38q-31 0 -31 31z" />
<glyph unicode="#" horiz-adv-x="1220" d="M143 440v35q0 31 31 31h148v483h-148q-31 0 -31 31v35q0 30 31 30h148v371q0 31 30 31h43q31 0 31 -31v-371h371v371q0 31 30 31h43q31 0 31 -31v-371h146q30 0 30 -30v-35q0 -31 -30 -31h-146v-483h146q30 0 30 -31v-35q0 -30 -30 -30h-146v-379q0 -31 -31 -31h-43 q-30 0 -30 31v379h-371v-379q0 -31 -31 -31h-43q-30 0 -30 31v379h-148q-31 0 -31 30zM426 506h371v483h-371v-483z" />
<glyph unicode="$" horiz-adv-x="954" d="M94 559q-2 13 7 22t24 9h55q30 0 33 -29q7 -93 58.5 -126.5t148.5 -35.5v332q-62 9 -106 20t-86.5 30.5t-68.5 47.5t-41.5 70.5t-15.5 99.5q0 131 84.5 198t233.5 75v131q0 31 31 31h53q31 0 31 -31v-131q64 -4 118 -23t97.5 -53.5t69.5 -90.5t28 -128q0 -33 -29 -33h-51 q-14 0 -24.5 7t-10.5 20q-1 102 -53.5 144.5t-144.5 47.5v-336q63 -8 107 -18t88.5 -29t71.5 -45.5t43.5 -68t16.5 -97.5q0 -86 -46.5 -149t-118.5 -93.5t-162 -35.5v-131q0 -31 -31 -31h-53q-31 0 -31 31v131q-136 6 -226 72.5t-100 195.5zM215 999q0 -46 13 -75.5 t44 -45.5t61.5 -23t86.5 -13v321q-107 -2 -156 -35.5t-49 -128.5zM535 399q48 2 84 10t67.5 26t48.5 52t17 82q0 35 -11.5 60.5t-28 40.5t-48 25t-58 14.5t-71.5 9.5v-320z" />
<glyph unicode="%" horiz-adv-x="1290" d="M82 1210v43q0 84 45.5 132.5t132.5 48.5h62q88 0 133 -48.5t45 -132.5v-43q0 -85 -44.5 -131.5t-133.5 -46.5h-62q-88 0 -133 46.5t-45 131.5zM170.5 8q-6.5 8 1.5 23l838 1372q10 17 18.5 24t22.5 7h57q16 0 22 -8t-2 -23l-839 -1372q-10 -17 -18.5 -24t-22.5 -7h-55 q-16 0 -22.5 8zM172 1210q0 -92 100 -92h37q103 0 103 92v43q0 93 -103 93h-37q-100 0 -100 -93v-43zM791 178v43q0 84 45 132t133 48h61q87 0 132.5 -48t45.5 -132v-43q0 -85 -45 -131.5t-133 -46.5h-61q-89 0 -133.5 46.5t-44.5 131.5zM879 178q0 -92 100 -92h39 q102 0 102 92v43q0 47 -24.5 69.5t-77.5 22.5h-39q-100 0 -100 -92v-43z" />
<glyph unicode="&#x26;" horiz-adv-x="1429" d="M92 315v134q0 92 39 154.5t154 115.5l57 26l-16 15q-100 84 -132 145.5t-32 155.5v67q0 154 97.5 235t285.5 81h92q188 0 289.5 -81.5t101.5 -234.5v-163h-104v163q0 113 -66.5 166.5t-220.5 53.5h-92q-155 0 -217 -52t-62 -168v-67q0 -46 9 -79.5t34.5 -65.5t46.5 -51.5 t70 -59.5l596 -508v18v347q0 12 8.5 20t20.5 8h163q12 0 20.5 -8t8.5 -20v-39q0 -12 -8.5 -20.5t-20.5 -8.5h-88v-279q0 -59 -8 -100l209 -178q14 -12 8 -24.5t-26 -12.5h-62q-18 0 -37 16l-125 105q-78 -152 -340 -152h-272q-191 0 -286 80t-95 266zM197 315 q0 -76 15.5 -125t51.5 -75.5t83.5 -36.5t121.5 -10h281q112 0 172.5 25t83.5 95l-584 490l-80 -33q-75 -32 -110 -74t-35 -120v-136z" />
<glyph unicode="'" horiz-adv-x="366" d="M133 877v526q0 31 31 31h39q30 0 30 -31v-526q0 -31 -30 -31h-39q-31 0 -31 31z" />
<glyph unicode="(" horiz-adv-x="675" d="M133 242v1003q0 173 90.5 279t243.5 106h45q31 0 31 -31v-43q0 -30 -31 -30h-57q-103 0 -160 -72t-57 -197v-1028q0 -124 57 -196t160 -72h57q31 0 31 -31v-43q0 -30 -31 -30h-45q-153 0 -243.5 106t-90.5 279z" />
<glyph unicode=")" horiz-adv-x="675" d="M133 -70q0 31 31 31h57q103 0 160 72t57 196v1028q0 125 -57 197t-160 72h-57q-31 0 -31 30v43q0 31 31 31h45q153 0 243.5 -106t90.5 -279v-1003q0 -173 -90.5 -279t-243.5 -106h-45q-31 0 -31 30v43z" />
<glyph unicode="*" horiz-adv-x="755" d="M129 1085q-13 22 8 35l160 90l-160 88q-23 11 -8 35l27 47q15 21 37 9l135 -101v174q0 25 22 25h56q26 0 26 -25v-174l131 101q25 12 37 -9l29 -47q12 -24 -11 -35l-157 -88l157 -90q22 -14 11 -35l-29 -47q-12 -21 -37 -8l-131 100v-174q0 -24 -26 -24h-56q-22 0 -22 24 v174l-135 -100q-22 -13 -37 8z" />
<glyph unicode="+" horiz-adv-x="1052" d="M123 641v43q0 31 31 31h323v340q0 30 31 30h43q31 0 31 -30v-340h319q29 0 29 -31v-43q0 -31 -31 -31h-317v-344q0 -30 -31 -30h-43q-31 0 -31 30v344h-323q-31 0 -31 31z" />
<glyph unicode="," horiz-adv-x="311" d="M72 31v112q0 31 30 31h107q31 0 31 -31v-120q0 -202 -88 -308q-3 -4 -11 -4.5t-12 2.5l-18 15q-15 13 -2 30q20 27 35.5 92.5t15.5 129.5l8 20h-66q-30 0 -30 31z" />
<glyph unicode="-" horiz-adv-x="847" d="M123 496v34q0 31 31 31h540q31 0 31 -31v-34q0 -31 -31 -31h-540q-31 0 -31 31z" />
<glyph unicode="." horiz-adv-x="311" d="M72 31v112q0 31 30 31h107q31 0 31 -31v-112q0 -31 -31 -31h-107q-30 0 -30 31z" />
<glyph unicode="/" horiz-adv-x="808" d="M43 -20l647 1476q12 31 41 31h55q33 0 21 -31l-647 -1476q-12 -31 -41 -31h-56q-32 0 -20 31z" />
<glyph unicode="0" d="M113 416v602q0 205 107 315.5t304 110.5h138q196 0 303.5 -110.5t107.5 -315.5v-602q0 -205 -107.5 -315.5t-303.5 -110.5h-138q-197 0 -304 110.5t-107 315.5zM217 416q0 -171 72.5 -249.5t234.5 -78.5h138q162 0 234.5 78.5t72.5 249.5v602q0 171 -72.5 249.5 t-234.5 78.5h-138q-162 0 -234.5 -78.5t-72.5 -249.5v-602z" />
<glyph unicode="1" horiz-adv-x="681" d="M154 1196q-20 20 0 43l186 184q6 6 8 7q8 4 19 4h39q30 0 30 -31v-1372q0 -31 -30 -31h-39q-31 0 -31 31v1243l-109 -109q-20 -23 -43 0z" />
<glyph unicode="2" horiz-adv-x="1122" d="M92 31q1 100 7 169t23.5 137t49 116t82.5 90t125 75l272 119q46 20 68.5 30.5t56 27.5t49 29t36.5 30.5t30 36.5t19 43t13 54t3 65q0 148 -73.5 220.5t-234.5 72.5h-98q-158 0 -229.5 -74.5t-77.5 -245.5q0 -13 -8.5 -21t-20.5 -8h-47q-12 0 -20 8t-8 21q7 206 113 312 t298 106h98q195 0 303.5 -104.5t108.5 -286.5q0 -59 -10 -107t-33 -87t-51.5 -69.5t-74 -59t-91.5 -51t-113 -50.5l-225 -94q-60 -25 -103.5 -64t-66.5 -79.5t-36 -96t-16 -98t-3 -99.5h788q31 0 31 -30v-37q0 -31 -31 -31h-872q-31 0 -31 31z" />
<glyph unicode="3" horiz-adv-x="1134" d="M92 408q0 13 8.5 20.5t20.5 7.5h47q12 0 20.5 -7.5t8.5 -20.5q6 -170 78 -246t229 -76h127q162 0 234.5 76.5t72.5 238.5q0 147 -90 224.5t-258 83.5h-125q-31 0 -31 30v33q0 31 31 31h125q172 6 245.5 69t73.5 224q0 252 -307 252h-74q-158 0 -229.5 -75.5t-77.5 -246.5 q0 -13 -8 -21t-20 -8h-48q-12 0 -20 8t-8 21q7 205 113.5 311.5t297.5 106.5h74q191 0 301.5 -98t110.5 -250q0 -83 -14 -139t-47.5 -93.5t-73 -59.5t-105.5 -46q85 -29 141 -69t91.5 -112.5t35.5 -175.5q0 -195 -107.5 -303t-303.5 -108h-127q-191 0 -298 106.5t-114 311.5 z" />
<glyph unicode="4" horiz-adv-x="1101" d="M78 516q-10 21 4 43l496 852q14 23 40 23h46q20 0 25 -11t-5 -26l-491 -842h532v279q0 30 31 30h43q30 0 30 -30v-279h150q31 0 31 -31v-35q0 -30 -31 -30h-150v-428q0 -31 -30 -31h-43q-31 0 -31 31v428h-596q-24 0 -33 20z" />
<glyph unicode="5" horiz-adv-x="1144" d="M92 408q0 13 8.5 20.5t20.5 7.5h47q12 0 20.5 -7.5t8.5 -20.5q6 -172 76.5 -247t230.5 -75h127q162 0 234.5 83t72.5 273q0 182 -72.5 285.5t-220.5 103.5h-96q-33 0 -62.5 -3.5t-57.5 -13t-47.5 -16.5t-46.5 -24t-38.5 -24t-40.5 -28t-37 -26h-76q-30 0 -30 31v39 l63 637q3 31 31 31h731q31 0 31 -31v-35q0 -31 -31 -31h-668l-55 -526q54 38 90.5 59t100.5 38.5t143 19.5h96q191 0 294 -120.5t103 -365.5q0 -223 -107.5 -337.5t-303.5 -114.5h-127q-193 0 -299 106t-113 312z" />
<glyph unicode="6" horiz-adv-x="1181" d="M102 682q0 83 2 146t8 132.5t16 121t27 104t40.5 90t57 71t76 54t97.5 32t121 11.5h82q203 0 303.5 -98t109.5 -273q3 -31 -30 -31h-43q-28 0 -31 31q-6 68 -22.5 115.5t-50 86t-92.5 57t-144 18.5h-80q-197 0 -271 -130t-77 -466q98 125 303 125h174q212 0 306.5 -102.5 t94.5 -342.5q0 -204 -105 -324t-298 -120h-168q-80 0 -138 15.5t-111.5 59.5t-86 120t-51.5 200.5t-19 296.5zM211 559q0 -248 70.5 -360.5t226.5 -112.5h168q299 0 299 348q0 181 -64 264.5t-233 83.5h-168q-149 0 -224 -58t-75 -165z" />
<glyph unicode="7" horiz-adv-x="1101" d="M92 1368v35q0 31 31 31h887q30 0 30 -31v-35q0 -31 -8 -47q-276 -309 -451 -606.5t-284 -679.5q-12 -35 -41 -35h-43q-13 0 -18 14t0 29q104 365 285 680.5t444 613.5h-801q-31 0 -31 31z" />
<glyph unicode="8" horiz-adv-x="1193" d="M92 442q0 153 53.5 242.5t159.5 134.5q-149 73 -149 281q0 166 96.5 255t282.5 89h129q185 0 279.5 -88.5t94.5 -255.5q0 -210 -147 -281q104 -45 157.5 -134.5t53.5 -242.5q0 -230 -113.5 -341t-324.5 -111h-134q-211 0 -324.5 111t-113.5 341zM197 442 q0 -185 84 -269.5t247 -84.5h140q163 0 246 84t83 270q0 170 -75 248t-238 78h-170q-165 0 -241 -78t-76 -248zM262 1104q0 -134 57.5 -190t210.5 -56h138q151 0 207.5 56t56.5 190q0 127 -61.5 186.5t-206.5 59.5h-129q-147 0 -210 -60t-63 -186z" />
<glyph unicode="9" horiz-adv-x="1171" d="M92 999q0 203 106.5 324t299.5 121h168q80 0 138 -15.5t110.5 -59.5t84.5 -120t51 -200t19 -297q0 -83 -2 -146t-7.5 -132.5t-16 -121t-27 -104.5t-40.5 -90t-57 -70.5t-75.5 -54t-97.5 -32t-121 -11.5h-82q-201 0 -302 97.5t-112 272.5q-3 31 31 31h43q27 0 30 -31 q6 -68 22.5 -115.5t50.5 -85.5t93 -56.5t144 -18.5h80q197 0 271 130t77 466q-98 -125 -301 -125h-174q-213 0 -308.5 102t-95.5 342zM197 999q0 -89 13.5 -150.5t47 -107.5t92.5 -68t146 -22h168q148 0 222.5 57.5t74.5 165.5q0 249 -69.5 361.5t-225.5 112.5h-168 q-301 0 -301 -349z" />
<glyph unicode=":" horiz-adv-x="444" d="M154 31v96q0 31 30 31h76q31 0 31 -31v-96q0 -31 -31 -31h-76q-30 0 -30 31zM154 836v96q0 31 30 31h76q31 0 31 -31v-96q0 -31 -31 -31h-76q-30 0 -30 31z" />
<glyph unicode=";" horiz-adv-x="448" d="M154 31v143q0 31 30 31h76q13 0 21 -10t10 -23t2.5 -75t-0.5 -95q-1 -47 -2.5 -67t-11 -54t-27.5 -61q-19 -19 -31 -21l-16 -12q-13 -2 -20 10.5t1 24.5q24 36 31.5 89t1.5 83l6 6h-41q-30 0 -30 31zM154 836v96q0 31 30 31h76q31 0 31 -31v-96q0 -31 -31 -31h-76 q-30 0 -30 31z" />
<glyph unicode="&#x3c;" horiz-adv-x="983" d="M123 483q0 27 16 37l688 404q13 7 23 1.5t10 -18.5v-51q0 -38 -20 -49l-555 -324l555 -323q20 -11 20 -49v-52q0 -12 -10 -17.5t-23 1.5l-688 403q-16 10 -16 37z" />
<glyph unicode="=" horiz-adv-x="929" d="M123 481v45q0 31 31 31h622q31 0 31 -31v-45q0 -30 -31 -30h-622q-31 0 -31 30zM123 811v45q0 31 31 31h622q31 0 31 -31v-45q0 -31 -31 -31h-622q-31 0 -31 31z" />
<glyph unicode="&#x3e;" horiz-adv-x="983" d="M123 59v52q0 38 20 49l555 323l-555 324q-20 11 -20 49v51q0 13 9.5 18.5t23.5 -1.5l688 -404q16 -10 16 -37t-16 -37l-688 -403q-14 -7 -23.5 -1.5t-9.5 17.5z" />
<glyph unicode="?" horiz-adv-x="1036" d="M72 1047q9 218 109 311.5t292 93.5h84q204 0 306 -101t102 -327q0 -75 -16 -134t-39 -96t-61.5 -67.5t-71.5 -46.5t-81 -33q-117 -41 -152.5 -74t-35.5 -112v-99q0 -30 -31 -30h-41q-30 0 -30 30v93q0 109 45 165.5t151 96.5q35 13 49 18t43.5 17.5t42 21t34.5 23.5 t31.5 29t23.5 35t19.5 44t10 53.5t4.5 65.5q0 130 -32.5 202t-96 99t-174.5 27h-84q-78 0 -128 -12.5t-88 -45.5t-56.5 -93t-22.5 -154q0 -29 -28 -29h-50q-28 0 -28 29zM397 31v55q0 31 31 31h57q31 0 31 -31v-55q0 -31 -31 -31h-57q-31 0 -31 31z" />
<glyph unicode="@" horiz-adv-x="1241" d="M123 438v541q0 246 108.5 355.5t346.5 109.5h94q226 0 336 -111t110 -356v-539q0 -149 -129 -149h-35q-47 0 -74 25t-36 83q-81 -110 -230 -110h-39q-268 0 -268 256q0 130 61 192t205 62h254v8q0 141 -38 190t-146 49h-45q-19 0 -36 -1t-31.5 -4.5t-25 -5.5t-22 -8.5 t-17.5 -9.5t-16.5 -12t-13.5 -11.5t-14.5 -13.5t-13.5 -13q-11 -9 -24 -9.5t-22 9.5l-20 20q-9 9 -8.5 21.5t8.5 21.5q45 58 104.5 86.5t161.5 28.5h31q149 0 219 -82t70 -254v-277v-94q0 -22 9.5 -33.5t35.5 -11.5t35.5 11.5t9.5 33.5v541q0 194 -81.5 281.5t-264.5 87.5 h-94q-196 0 -276.5 -86t-80.5 -281v-543q0 -200 82.5 -282t261.5 -82h78q76 0 152 47q36 22 36 -17v-51q0 -26 -22 -37q-87 -41 -166 -41h-78q-234 0 -338 103.5t-104 361.5zM410 543q0 -87 38 -122.5t125 -35.5h39q90 0 152.5 44t62.5 110v161h-252q-96 0 -130.5 -30.5 t-34.5 -126.5z" />
<glyph unicode="A" horiz-adv-x="1146" d="M66 33l442 1368q10 33 39 33h53q29 0 39 -33l442 -1368q11 -33 -24 -33h-45q-28 0 -37 33l-113 354h-577l-113 -354q-9 -33 -37 -33h-45q-35 0 -24 33zM315 481h516l-258 811z" />
<glyph unicode="B" horiz-adv-x="1120" d="M133 31v1372q0 31 31 31h43h432q172 0 255 -88t83 -271q0 -214 -125 -301q186 -78 186 -334v-69q0 -199 -101 -285t-296 -86h-446h-31q-31 0 -31 31zM238 98h403q82 0 133 10t89.5 39.5t54.5 83.5t16 140v69q0 86 -16 140.5t-54.5 84.5t-89.5 41t-133 11h-403v-619z M238 809h401q136 0 184.5 58.5t48.5 207.5q0 151 -47.5 205.5t-185.5 54.5h-401v-526z" />
<glyph unicode="C" horiz-adv-x="1165" d="M113 416v602q0 212 106 319t305 107h127q194 0 300 -103.5t112 -314.5q0 -13 -8.5 -21t-20.5 -8h-45q-14 0 -22.5 8t-8.5 21q-6 171 -77.5 245.5t-229.5 74.5h-127q-162 0 -234.5 -78.5t-72.5 -249.5v-602q0 -171 72.5 -249.5t234.5 -78.5h127q158 0 229.5 74.5 t77.5 245.5q0 28 31 28h45q12 0 20.5 -7.5t8.5 -20.5q-6 -211 -112 -314.5t-300 -103.5h-127q-199 0 -305 107t-106 319z" />
<glyph unicode="D" horiz-adv-x="1144" d="M133 31v1372q0 31 31 31h43h446q192 0 296 -101.5t104 -306.5v-618q0 -205 -104 -306.5t-296 -101.5h-458h-31q-31 0 -31 31zM238 98h415q154 0 224.5 73t70.5 237v618q0 163 -70 236t-225 73h-415v-1237z" />
<glyph unicode="E" horiz-adv-x="1036" d="M133 31v1372q0 31 31 31h749q31 0 31 -31v-37q0 -31 -31 -31h-675v-590h520q30 0 30 -30v-37q0 -31 -30 -31h-520v-549h686q30 0 30 -30v-37q0 -31 -30 -31h-760q-31 0 -31 31z" />
<glyph unicode="F" horiz-adv-x="1007" d="M133 31v1372q0 31 31 31h751q31 0 31 -31v-37q0 -31 -31 -31h-677v-590h522q31 0 31 -30v-37q0 -31 -31 -31h-522v-616q0 -31 -31 -31h-43q-31 0 -31 31z" />
<glyph unicode="G" horiz-adv-x="1165" d="M113 416v602q0 212 106 319t305 107h127q193 0 298 -100.5t114 -303.5q0 -13 -8.5 -20.5t-20.5 -7.5h-45q-31 0 -31 28q-6 160 -78.5 233t-228.5 73h-127q-162 0 -234.5 -78.5t-72.5 -249.5v-602q0 -171 72.5 -249.5t234.5 -78.5h127q163 0 235 78t72 250v250h-231 q-12 0 -20.5 7.5t-8.5 20.5v37q0 13 8.5 22t20.5 9h307q12 0 20.5 -9t8.5 -22v-315q0 -212 -106.5 -319t-305.5 -107h-127q-199 0 -305 107t-106 319z" />
<glyph unicode="H" horiz-adv-x="1163" d="M133 31v1372q0 31 31 31h43q31 0 31 -31v-658h688v658q0 31 30 31h43q31 0 31 -31v-1372q0 -31 -31 -31h-43q-30 0 -30 31v616h-688v-616q0 -31 -31 -31h-43q-31 0 -31 31z" />
<glyph unicode="I" horiz-adv-x="370" d="M133 31v1372q0 31 31 31h43q31 0 31 -31v-1372q0 -31 -31 -31h-43q-31 0 -31 31z" />
<glyph unicode="J" horiz-adv-x="962" d="M78 117l45 55q7 10 24 0q96 -86 234 -86q167 0 255.5 93t88.5 265v959q0 31 31 31h43q30 0 30 -31v-957q0 -215 -118 -337.5t-330 -122.5q-181 0 -301 108q-12 10 -2 23z" />
<glyph unicode="K" horiz-adv-x="1091" d="M133 31v1372q0 31 31 31h43q31 0 31 -31v-785l608 785q22 31 47 31h43q18 0 24 -14t-6 -31l-505 -658l561 -682q12 -12 9 -30.5t-22 -18.5h-45q-32 0 -55 29l-518 633l-141 -181v-450q0 -31 -31 -31h-43q-31 0 -31 31z" />
<glyph unicode="L" horiz-adv-x="956" d="M133 31v1372q0 31 31 31h43q31 0 31 -31v-1305h606q30 0 30 -30v-37q0 -31 -30 -31h-680q-31 0 -31 31z" />
<glyph unicode="M" horiz-adv-x="1449" d="M133 31v1372q0 31 31 31h117q32 0 41 -31l403 -1247l405 1247q9 31 41 31h115q31 0 31 -31v-1372q0 -31 -31 -31h-43q-31 0 -31 31v1308l-424 -1308q-9 -31 -38 -31h-50q-29 0 -38 31l-424 1308v-1308q0 -31 -31 -31h-43q-31 0 -31 31z" />
<glyph unicode="N" d="M133 31v1372q0 31 31 31h108q26 0 37 -23l639 -1315v1307q0 31 31 31h43q31 0 31 -31v-1372q0 -31 -31 -31h-109q-25 0 -36 23l-639 1314v-1306q0 -31 -31 -31h-43q-31 0 -31 31z" />
<glyph unicode="O" d="M113 416v602q0 212 106 319t305 107h138q198 0 304.5 -107t106.5 -319v-602q0 -212 -106.5 -319t-304.5 -107h-138q-199 0 -305 107t-106 319zM217 416q0 -171 72.5 -249.5t234.5 -78.5h138q162 0 234.5 78.5t72.5 249.5v602q0 171 -72.5 249.5t-234.5 78.5h-138 q-162 0 -234.5 -78.5t-72.5 -249.5v-602z" />
<glyph unicode="P" horiz-adv-x="1114" d="M133 31v1372q0 31 31 31h43h436q190 0 294.5 -105.5t104.5 -304.5v-100q0 -199 -104.5 -304.5t-294.5 -105.5h-405v-483q0 -31 -31 -31h-43q-31 0 -31 31zM238 612h405q155 0 225 73.5t70 238.5v100q0 165 -70 238t-225 73h-405v-723z" />
<glyph unicode="Q" d="M113 416v602q0 212 106 319t305 107h138q198 0 304.5 -107t106.5 -319v-602q0 -212 -106.5 -319t-304.5 -107h-17v-150q0 -30 -31 -33h-43q-30 0 -30 31v152h-17q-199 0 -305 107t-106 319zM217 416q0 -171 72.5 -249.5t234.5 -78.5h138q162 0 234.5 78.5t72.5 249.5v602 q0 171 -72.5 249.5t-234.5 78.5h-138q-162 0 -234.5 -78.5t-72.5 -249.5v-602z" />
<glyph unicode="R" horiz-adv-x="1157" d="M133 31v1372q0 31 31 31h43h436q192 0 295.5 -102t103.5 -308v-100q0 -292 -206 -377l235 -512q7 -15 1 -25t-21 -10h-52q-23 0 -32 20l-228 500q-47 -6 -96 -6h-405v-483q0 -31 -31 -31h-43q-31 0 -31 31zM238 612h405q155 0 225 73.5t70 238.5v100q0 165 -70 238 t-225 73h-405v-723z" />
<glyph unicode="S" horiz-adv-x="1107" d="M92 387q0 13 8.5 21t20.5 8h47q12 0 20.5 -8t8.5 -21q6 -155 79.5 -227t227.5 -72h110q162 0 235 76.5t73 245.5q0 57 -18 100.5t-44.5 70t-70.5 47.5t-82.5 32.5t-93.5 25.5q-17 4 -25 6l-78 21q-60 15 -94.5 24.5t-83 27t-76 34.5t-59 44.5t-48 59.5t-27.5 76.5 t-11 99.5q0 194 105.5 279.5t305.5 85.5h70q381 0 399 -391q0 -29 -30 -29h-46q-28 0 -28 29q-6 154 -74.5 223.5t-220.5 69.5h-70q-165 0 -236 -56.5t-71 -210.5q0 -31 4.5 -58t10.5 -47.5t19 -38t23 -29.5t30.5 -23.5t33.5 -18t39.5 -14.5t41 -12t45.5 -11.5t46 -11.5 l80 -20q79 -20 132.5 -37t116.5 -48t100.5 -69t63 -97t25.5 -134q0 -212 -106 -316t-306 -104h-110q-192 0 -297.5 99.5t-114.5 297.5z" />
<glyph unicode="T" horiz-adv-x="1038" d="M82 1366v37q0 31 31 31h430h385q30 0 30 -31v-37q0 -31 -30 -31h-355v-1304q0 -31 -30 -31h-43q-31 0 -31 31v1304h-356q-31 0 -31 31z" />
<glyph unicode="U" horiz-adv-x="1226" d="M133 416v989q0 12 8.5 20.5t20.5 8.5h47q12 0 20.5 -8.5t8.5 -20.5v-989q0 -165 75 -246.5t232 -81.5h137q157 0 232 81.5t75 246.5v989q0 12 8 20.5t21 8.5h45q13 0 22 -8.5t9 -20.5v-989q0 -212 -106.5 -319t-305.5 -107h-137q-201 0 -306.5 106.5t-105.5 319.5z" />
<glyph unicode="V" horiz-adv-x="1161" d="M74 1401q-11 33 24 33h45q28 0 37 -33l402 -1260l401 1260q9 33 37 33h43q16 0 23.5 -8.5t0.5 -24.5l-442 -1368q-10 -33 -39 -33h-51q-29 0 -39 33z" />
<glyph unicode="W" horiz-adv-x="1845" d="M74 1403q-6 31 24 31h47q31 0 37 -31l303 -1247l373 1247q9 31 39 31h51q30 0 39 -31l373 -1247l303 1247q6 31 37 31h47q31 0 25 -31l-342 -1372q-8 -31 -41 -31h-52q-31 0 -39 31l-374 1243l-377 -1243q-8 -31 -39 -31h-51q-33 0 -41 31z" />
<glyph unicode="X" horiz-adv-x="1077" d="M86.5 7q-6.5 7 1.5 22l393 688l-393 688q-8 15 -1.5 22t22.5 7h55q24 0 41 -29l334 -590l333 590q17 29 41 29h56q16 0 22 -7t-2 -22l-393 -688l393 -688q8 -15 2 -22t-22 -7h-56q-24 0 -41 29l-333 589l-334 -589q-17 -29 -41 -29h-55q-16 0 -22.5 7z" />
<glyph unicode="Y" horiz-adv-x="1134" d="M66 1426q6 8 22 8h59q14 0 22.5 -7t18.5 -24l379 -668l379 668q10 17 18.5 24t22.5 7h60q16 0 22 -8t-2 -23l-449 -772v-600q0 -31 -30 -31h-43q-31 0 -31 31v600l-446 772q-8 15 -2 23z" />
<glyph unicode="Z" horiz-adv-x="1044" d="M92 31v30q0 21 10 39l732 1235h-705q-31 0 -31 31v37q0 31 31 31h793q30 0 30 -31v-31q0 -27 -14 -51l-727 -1223h709q30 0 30 -30v-37q0 -31 -30 -31h-797q-31 0 -31 31z" />
<glyph unicode="[" horiz-adv-x="577" d="M133 -113v1712q0 31 31 31h250q30 0 30 -31v-43q0 -30 -30 -30h-176v-1565h176q30 0 30 -31v-43q0 -30 -30 -30h-250q-31 0 -31 30z" />
<glyph unicode="\" horiz-adv-x="786" d="M2 1456q-12 31 21 31h55q29 0 41 -31l622 -1425q7 -15 1.5 -23t-21.5 -8h-55q-26 0 -41 31z" />
<glyph unicode="]" horiz-adv-x="577" d="M133 -70q0 31 31 31h176v1565h-176q-31 0 -31 30v43q0 31 31 31h250q30 0 30 -31v-1712q0 -30 -30 -30h-250q-31 0 -31 30v43z" />
<glyph unicode="^" horiz-adv-x="780" d="M104 963l211 493q10 31 41 31h68q27 0 41 -31l211 -493q12 -31 -21 -31h-55q-29 0 -41 31l-170 387l-168 -387q-12 -31 -41 -31h-55q-33 0 -21 31z" />
<glyph unicode="_" horiz-adv-x="1196" d="M102 31v37q0 30 31 30h930q31 0 31 -30v-37q0 -31 -31 -31h-930q-31 0 -31 31z" />
<glyph unicode="`" horiz-adv-x="512" d="M105.5 1424q6.5 10 25.5 10h78q14 0 22.5 -8t20.5 -29l151 -236q9 -17 2.5 -27t-22.5 -10h-43q-7 0 -12.5 3t-8.5 6.5t-10 12.5t-12 15l-186 236q-12 17 -5.5 27z" />
<glyph unicode="a" horiz-adv-x="1001" d="M82 295q0 149 78 222t215 73h407v63q0 165 -51.5 224t-198.5 59h-38q-147 0 -254 -55q-35 -19 -43 2l-23 43q-10 20 16 35q110 71 304 71h38q188 0 269.5 -89.5t81.5 -287.5v-606q0 -15 4 -31q5 -18 -6 -18h-66q-33 0 -33 49v123q-108 -182 -309 -182h-94 q-141 0 -219 77.5t-78 227.5zM182 295q0 -112 49 -159.5t148 -47.5h86q121 0 202.5 61t114.5 166v183h-403q-100 0 -148.5 -46t-48.5 -157z" />
<glyph unicode="b" horiz-adv-x="1030" d="M123 31v1372q0 31 31 31h39q30 0 30 -31v-526q31 78 98.5 116.5t180.5 38.5h73q164 0 263.5 -97t99.5 -276v-292q0 -177 -100 -277t-263 -100h-73q-213 0 -279 168v-127q0 -31 -30 -31h-39q-31 0 -31 31zM223 358q0 -132 68 -201t196 -69h86q128 0 196.5 69.5t68.5 200.5 v295q0 141 -68 211t-197 70h-86q-129 0 -196.5 -70t-67.5 -211v-295z" />
<glyph unicode="c" horiz-adv-x="954" d="M92 354v305q0 177 101.5 274t267.5 97h69q133 0 224 -74.5t116 -207.5q3 -14 -4 -22.5t-20 -8.5h-47q-23 0 -33 26q-17 93 -79.5 142t-156.5 49h-69q-129 0 -196.5 -70.5t-67.5 -208.5v-307q0 -125 68.5 -192.5t195.5 -67.5h67q42 0 76 8t54.5 16t46.5 31t36 34.5 t39 45.5q11 13 19 14.5t22 -6.5l29 -22q26 -17 6 -43q-24 -29 -32.5 -39t-31.5 -34.5t-37.5 -34.5t-41 -26.5t-51.5 -23t-60 -12.5t-74 -6h-67q-164 0 -266.5 97.5t-102.5 266.5z" />
<glyph unicode="d" horiz-adv-x="1030" d="M92 367v292q0 179 99.5 276t263.5 97h73q112 0 179 -38t100 -115v524q0 31 31 31h39q30 0 30 -31v-1372q0 -31 -30 -31h-39q-31 0 -31 31v125q-70 -166 -279 -166h-73q-163 0 -263 100t-100 277zM193 358q0 -132 68 -201t196 -69h86q128 0 196 69t68 201v295 q0 141 -67.5 212t-196.5 71h-86q-129 0 -196.5 -71t-67.5 -212v-295z" />
<glyph unicode="e" horiz-adv-x="976" d="M92 354v305q0 178 101.5 275.5t267.5 97.5h67q67 0 130 -24.5t114 -70t82 -117t31 -158.5v-130q0 -29 -18.5 -46t-49.5 -17h-620v-121q0 -125 68.5 -192.5t195.5 -67.5h67q64 0 109.5 18t69 40t57.5 64q6 9 10 13q11 13 19 14.5t24 -8.5l27 -18q25 -18 6 -43 q-36 -44 -59 -67.5t-62.5 -53.5t-89 -43.5t-111.5 -13.5h-67q-164 0 -266.5 97.5t-102.5 266.5zM197 561h583v92q0 137 -70 210t-182 73h-67q-129 0 -196.5 -70.5t-67.5 -210.5v-94z" />
<glyph unicode="f" horiz-adv-x="727" d="M82 958v35q0 31 31 31h96v106q0 172 79.5 264.5t231.5 92.5h125q31 0 31 -31v-35q0 -30 -31 -30h-125q-112 0 -161.5 -63.5t-49.5 -197.5v-106h316q30 0 30 -31v-35q0 -30 -30 -30h-316v-897q0 -31 -30 -31h-39q-31 0 -31 31v897h-96q-31 0 -31 30z" />
<glyph unicode="g" horiz-adv-x="1030" d="M92 367v292q0 179 99.5 276t263.5 97h73q112 0 179 -38t100 -115v114q0 31 31 31h39q30 0 30 -31v-1052q0 -351 -424 -351q-101 0 -182 19q-18 3 -18 18v62q0 19 18 16q76 -18 182 -18q80 0 135.5 10.5t100.5 37t66.5 76.5t21.5 126v219q-70 -166 -279 -166h-73 q-163 0 -263 100t-100 277zM193 358q0 -132 68 -201t196 -69h86q128 0 196 69t68 201v295q0 141 -67.5 212t-196.5 71h-86q-129 0 -196.5 -71t-67.5 -212v-295z" />
<glyph unicode="h" horiz-adv-x="1005" d="M123 31v1372q0 31 31 31h39q30 0 30 -31v-539q117 168 318 168h16q178 0 252 -88t74 -274v-639q0 -31 -31 -31h-39q-31 0 -31 31v633q0 143 -46.5 207.5t-176.5 64.5h-35q-112 0 -189 -52t-112 -110v-743q0 -31 -30 -31h-39q-31 0 -31 31z" />
<glyph unicode="i" horiz-adv-x="387" d="M143 31v962q0 31 31 31h39q31 0 31 -31v-962q0 -31 -31 -31h-39q-31 0 -31 31zM147 1358v45q0 31 31 31h33q31 0 31 -31v-45q0 -31 -31 -31h-33q-31 0 -31 31z" />
<glyph unicode="j" horiz-adv-x="389" d="M-18 -319q-9 27 18 36q58 21 106 70.5t48 106.5v1099q0 31 30 31h31q31 0 31 -31v-1093q0 -82 -60.5 -162t-152.5 -115q-29 -10 -39 21zM154 1358v45q0 31 30 31h31q31 0 31 -31v-45q0 -31 -31 -31h-31q-30 0 -30 31z" />
<glyph unicode="k" horiz-adv-x="974" d="M123 31v1372q0 31 31 31h39q30 0 30 -31v-903l508 504q20 20 35 20h63q18 0 22 -15t-9 -26l-434 -428l485 -514q13 -15 8.5 -28t-22.5 -13h-48q-16 0 -25 5t-26 20l-440 464l-117 -114v-344q0 -31 -30 -31h-39q-31 0 -31 31z" />
<glyph unicode="l" horiz-adv-x="346" d="M123 31v1372q0 31 31 31h39q30 0 30 -31v-1372q0 -31 -30 -31h-39q-31 0 -31 31z" />
<glyph unicode="m" horiz-adv-x="1662" d="M123 31v962q0 31 31 31h39q30 0 30 -31v-129q117 168 318 168h16q132 0 206 -50.5t101 -152.5l19 35q114 168 317 168h17q176 0 249.5 -88t73.5 -274v-639q0 -31 -31 -31h-39q-30 0 -30 31v633q0 71 -9 118.5t-33 84t-68.5 53t-112.5 16.5h-33q-61 0 -114.5 -17t-90 -44 t-59.5 -52t-37 -49v-743q0 -31 -31 -31h-39q-31 0 -31 31v633q0 143 -46.5 207.5t-176.5 64.5h-35q-112 0 -189 -52t-112 -110v-743q0 -31 -30 -31h-39q-31 0 -31 31z" />
<glyph unicode="n" horiz-adv-x="1005" d="M123 31v962q0 31 31 31h39q30 0 30 -31v-129q117 168 318 168h16q178 0 252 -88t74 -274v-639q0 -31 -31 -31h-39q-31 0 -31 31v633q0 143 -46.5 207.5t-176.5 64.5h-35q-112 0 -189 -52t-112 -110v-743q0 -31 -30 -31h-39q-31 0 -31 31z" />
<glyph unicode="o" horiz-adv-x="1003" d="M92 367v292q0 179 99.5 276t265.5 97h88q167 0 266.5 -97t99.5 -276v-292q0 -177 -100 -277t-266 -100h-88q-164 0 -264.5 100t-100.5 277zM193 358q0 -132 68 -201t196 -69h88q129 0 196.5 69t67.5 201v295q0 283 -264 283h-88q-129 0 -196.5 -71t-67.5 -212v-295z" />
<glyph unicode="p" horiz-adv-x="1030" d="M123 -379v1372q0 31 31 31h39q30 0 30 -31v-114q33 77 100 115t179 38h73q164 0 263.5 -97t99.5 -276v-292q0 -177 -100 -277t-263 -100h-73q-209 0 -279 166v-535q0 -31 -30 -31h-39q-31 0 -31 31zM223 358q0 -132 68 -201t196 -69h86q128 0 196.5 69.5t68.5 200.5v295 q0 141 -68 212t-197 71h-86q-129 0 -196.5 -71t-67.5 -212v-295z" />
<glyph unicode="q" horiz-adv-x="1030" d="M92 367v292q0 179 99.5 276t263.5 97h73q112 0 179 -37.5t100 -115.5v114q0 31 31 31h39q30 0 30 -31v-1372q0 -31 -30 -31h-39q-31 0 -31 31v535q-70 -166 -279 -166h-73q-163 0 -263 100t-100 277zM193 358q0 -132 68 -201t196 -69h86q128 0 196 69t68 201v295 q0 141 -67.5 211t-196.5 70h-86q-129 0 -196.5 -70t-67.5 -211v-295z" />
<glyph unicode="r" horiz-adv-x="761" d="M123 31v962q0 31 31 31h39q30 0 30 -31v-129q115 168 334 168q67 0 133 -16q28 -12 19 -39l-17 -43q-11 -25 -39 -14q-46 16 -104 16h-25q-112 0 -189 -52t-112 -110v-743q0 -31 -30 -31h-39q-31 0 -31 31z" />
<glyph unicode="s" horiz-adv-x="935" d="M84 244q-3 13 4.5 21.5t22.5 8.5h51q25 0 28 -28q20 -83 76 -120.5t158 -37.5h82q248 0 248 197q0 25 -5.5 46.5t-12.5 37.5t-22.5 29.5t-28 22.5t-35.5 17t-39 12.5t-45.5 9.5t-46.5 7t-50 6q-62 7 -104.5 14.5t-88.5 21t-75 33t-53.5 48.5t-36 71t-11.5 97 q0 272 334 272h60q147 0 234 -68t93 -204q0 -33 -28 -33h-45q-14 0 -22.5 9t-8.5 24q-15 180 -228 180h-51q-117 0 -177 -41t-60 -141q0 -43 13 -74.5t34 -51t57.5 -33t72.5 -20t91 -12.5q82 -10 123.5 -17.5t101 -26.5t88 -46t50.5 -75t22 -115q0 -150 -98 -222.5 t-250 -72.5h-82q-141 0 -229 66t-111 188z" />
<glyph unicode="t" horiz-adv-x="600" d="M72 958v33q0 33 30 33h111v119q0 31 31 31h39q30 0 30 -31v-119h172q33 0 33 -31v-35q0 -30 -31 -30h-174v-606q0 -124 37.5 -176.5t138.5 -55.5q13 1 20 -8t7 -23l-2 -34q0 -12 -8 -20.5t-21 -8.5q-147 3 -209.5 80t-62.5 241v611h-111q-30 0 -30 30z" />
<glyph unicode="u" horiz-adv-x="1005" d="M123 354v639q0 31 31 31h39q30 0 30 -31v-633q0 -71 9.5 -118t34.5 -83t69.5 -52.5t112.5 -16.5h32q60 0 113 16.5t89.5 43.5t60.5 51.5t38 48.5v743q0 31 31 31h39q31 0 31 -31v-962q0 -31 -31 -31h-39q-31 0 -31 31v129q-117 -168 -317 -168h-16q-176 0 -251 88.5 t-75 273.5z" />
<glyph unicode="v" horiz-adv-x="901" d="M74 991q-5 14 0.5 23.5t19.5 9.5h47q22 0 33 -33l277 -874l276 874q11 33 33 33h47q14 0 19.5 -9.5t0.5 -23.5l-311 -960q-12 -31 -41 -31h-49q-29 0 -41 31z" />
<glyph unicode="w" horiz-adv-x="1470" d="M74 989q-9 35 24 35h43q28 0 37 -35q27 -96 73.5 -269.5t87.5 -320t83 -276.5q111 346 258 866q9 35 37 35h39q28 0 37 -35q147 -520 258 -866q54 172 139 488.5t102 377.5q9 35 37 35h43q34 0 25 -35l-279 -952q-4 -17 -17.5 -27t-27.5 -10h-45q-13 0 -26.5 10.5 t-16.5 26.5q-22 74 -77 247.5t-96 312.5t-77 277q-36 -139 -75.5 -273.5t-97 -319.5t-75.5 -244q-4 -17 -17.5 -27t-27.5 -10h-45q-13 0 -26.5 10.5t-16.5 26.5z" />
<glyph unicode="x" horiz-adv-x="905" d="M84 11q-6 11 4 28l303 481l-293 465q-11 17 -4.5 28t25.5 11h47q26 0 47 -37l242 -381l237 381q21 37 47 37h47q19 0 25 -11t-6 -28l-291 -467l303 -479q11 -17 4.5 -28t-26.5 -11h-45q-27 0 -48 37l-251 397l-248 -397q-21 -37 -47 -37h-47q-19 0 -25 11z" />
<glyph unicode="y" horiz-adv-x="964" d="M53 991q-12 33 19 33h49q14 0 20.5 -6.5t14.5 -26.5l325 -825l328 825q6 20 12 26.5t19 6.5h53q30 0 18 -33l-538 -1366q-14 -35 -43 -35h-39q-36 0 -21 37l162 408z" />
<glyph unicode="z" horiz-adv-x="894" d="M82 31v51q0 17 10 29l608 817h-557q-30 0 -30 30v33q0 33 30 33h637q33 0 33 -31v-59q0 -12 -10 -25l-606 -813h583q33 0 33 -30v-35q0 -31 -31 -31h-669q-31 0 -31 31z" />
<glyph unicode="{" horiz-adv-x="780" d="M141 721q-14 23 0 45l92 113q15 18 15 36v330q0 173 90.5 279t243.5 106h34q31 0 31 -31v-43q0 -30 -31 -30h-47q-104 0 -160.5 -69t-56.5 -193v-369q0 -20 -14 -37l-88 -115l90 -114q12 -18 12 -37v-369q0 -124 56.5 -193t160.5 -69h47q31 0 31 -31v-43q0 -30 -31 -30 h-34q-153 0 -243.5 106t-90.5 279v329q0 19 -15 37z" />
<glyph unicode="|" horiz-adv-x="432" d="M164 -379v1987q0 30 31 30h43q30 0 30 -30v-1987q0 -31 -30 -31h-43q-31 0 -31 31z" />
<glyph unicode="}" horiz-adv-x="780" d="M133 -70q0 31 31 31h47q104 0 160.5 69t56.5 193v369q0 19 12 37l90 114l-88 115q-14 17 -14 37v369q0 124 -56.5 193t-160.5 69h-47q-31 0 -31 30v43q0 31 31 31h35q153 0 243 -106t90 -279v-330q0 -18 15 -36l92 -113q14 -22 0 -45l-92 -113q-15 -18 -15 -37v-329 q0 -173 -90 -279t-243 -106h-35q-31 0 -31 30v43z" />
<glyph unicode="~" horiz-adv-x="1064" d="M106 745q-13 23 21 46q200 146 418 8q99 -61 175 -60t181 72q20 13 35 -16l22 -43q13 -23 -20 -45q-203 -148 -418 -9q-99 61 -175 60t-181 -72q-20 -14 -35 16z" />
<glyph unicode="&#xa1;" horiz-adv-x="425" d="M154 938v55q0 31 30 31h58q30 0 30 -31v-55q0 -31 -30 -31h-58q-30 0 -30 31zM162 -379v1041q0 30 31 30h40q31 0 31 -30v-1041q0 -31 -31 -31h-40q-31 0 -31 31z" />
<glyph unicode="&#xa2;" horiz-adv-x="958" d="M92 354v305q0 168 92.5 265t245.5 106v164q0 31 31 31h53q31 0 31 -31v-164q127 -5 213.5 -79t111.5 -203q3 -14 -4 -22.5t-20 -8.5h-47q-23 0 -33 26q-17 90 -75 138t-146 51v-844q47 1 81.5 10.5t64 32.5t43.5 38.5t46 53.5q11 13 19 14.5t22 -6.5l29 -22q26 -17 6 -43 q-24 -30 -31 -38.5t-30.5 -33.5t-36.5 -34t-39 -26t-49 -23.5t-55.5 -13t-69.5 -7.5v-221q0 -31 -31 -31h-53q-31 0 -31 31v221q-152 9 -245 106t-93 258zM197 348q0 -118 60 -185.5t173 -74.5v844q-115 -8 -174 -77.5t-59 -199.5v-307z" />
<glyph unicode="&#xa3;" horiz-adv-x="1228" d="M92 709v39q0 30 31 30h170q-59 156 -68 246q-27 227 89 357t325 130h72q197 0 309 -125.5t117 -347.5q0 -30 -31 -30h-43q-33 0 -33 30q0 181 -80 276t-239 95h-72q-171 0 -249.5 -97.5t-53.5 -287.5q11 -90 70 -246h366q31 0 31 -30v-39q0 -31 -31 -31h-334 q15 -71 13 -117q-12 -212 -109 -416q60 26 119 31t113.5 -7t119.5 -40q99 -41 182 -38.5t189 48.5q14 6 22.5 -4t8.5 -26v-48q0 -4 -0.5 -7t-1 -5t-3 -4t-3.5 -3.5t-4.5 -3t-5 -2t-6.5 -2.5t-7 -3q-108 -45 -201 -44.5t-196 44.5q-111 44 -195.5 35.5t-196.5 -68.5 q-13 -7 -48 29t-29 51q55 133 74 182.5t39.5 132.5t25.5 168q2 50 -12 117h-203q-31 0 -31 31z" />
<glyph unicode="&#xa4;" horiz-adv-x="1275" d="M102 39q-22 21 0 43l142 139q-21 75 -21 146v292q0 79 23 150l-144 141q-22 22 0 43l31 31q21 22 43 0l121 -119q95 127 293 127h88q202 0 297 -135l129 127q22 22 43 0l29 -31q22 -21 0 -43l-154 -151q20 -59 20 -140v-292q0 -75 -18 -136l154 -149q22 -22 0 -43 l-31 -31q-21 -22 -43 0l-127 125q-98 -143 -299 -143h-88q-196 0 -297 135l-117 -117q-22 -22 -43 0zM326 358q0 -132 67.5 -201t196.5 -69h88q128 0 196 69t68 201v295q0 141 -67.5 211t-196.5 70h-88q-264 0 -264 -281v-295z" />
<glyph unicode="&#xa5;" horiz-adv-x="1134" d="M66 1426q6 8 22 8h59q14 0 22.5 -7t18.5 -24l379 -668l379 668q10 17 18.5 24t22.5 7h60q16 0 22 -8t-2 -23l-449 -772v-62h312q31 0 31 -30v-43q0 -31 -31 -31h-312v-103h312q31 0 31 -30v-43q0 -31 -31 -31h-312v-227q0 -31 -30 -31h-43q-31 0 -31 31v227h-311 q-31 0 -31 31v43q0 30 31 30h311v103h-311q-31 0 -31 31v43q0 30 31 30h311v62l-446 772q-8 15 -2 23z" />
<glyph unicode="&#xa6;" horiz-adv-x="432" d="M164 -236v662q0 31 31 31h43q30 0 30 -31v-662q0 -30 -30 -30h-43q-31 0 -31 30zM164 803v661q0 31 31 31h43q30 0 30 -31v-661q0 -31 -30 -31h-43q-31 0 -31 31z" />
<glyph unicode="&#xa7;" horiz-adv-x="1241" d="M143 4v59q0 31 31 31h45q31 0 31 -31l2 -59q4 -140 97.5 -224.5t223.5 -84.5h95q137 0 231 85.5t94 229.5q0 61 -17.5 109t-45.5 79t-71 55t-85 37t-96 23l-107 21q-95 19 -168 48.5t-131.5 75.5t-89 113.5t-30.5 155.5q0 147 79 252q-79 88 -79 229q0 180 116.5 294 t286.5 114h107q108 0 204 -55t156 -156t59 -223v-39q0 -31 -30 -31h-45q-31 0 -31 31v39q0 147 -92.5 237t-220.5 90h-107q-132 0 -215.5 -78.5t-83.5 -220.5q0 -71 23.5 -123t69 -85t97.5 -53t123 -34l107 -20q90 -17 161 -45t132.5 -74t95 -117.5t33.5 -164.5 q0 -137 -78 -248q78 -94 78 -236q0 -120 -60 -217.5t-158 -150t-212 -52.5h-95q-110 0 -208 52t-160 148.5t-62 213.5zM256 727q0 -57 16.5 -101.5t43 -74.5t68.5 -52.5t85 -35.5t100 -25l107 -20q160 -29 268 -103q49 77 49 179q0 61 -17.5 108.5t-45.5 77.5t-71 53 t-84.5 35.5t-96.5 22.5l-107 20q-168 33 -264 100q-51 -76 -51 -184z" />
<glyph unicode="&#xa8;" horiz-adv-x="870" d="M102 1358v45q0 31 31 31h33q31 0 31 -31v-45q0 -31 -31 -31h-33q-31 0 -31 31zM676 1358v45q0 31 31 31h30q31 0 31 -31v-45q0 -31 -31 -31h-30q-31 0 -31 31z" />
<glyph unicode="&#xa9;" horiz-adv-x="1253" d="M113 436v541q0 222 123 344.5t325 122.5h129q203 0 327 -122.5t124 -344.5v-541q0 -223 -123.5 -343t-327.5 -120h-129q-203 0 -325.5 120t-122.5 343zM223 438q0 -185 88 -275.5t250 -90.5h129q163 0 251.5 90t88.5 276v539q0 184 -89 277.5t-251 93.5h-129 q-160 0 -249 -93.5t-89 -277.5v-539zM346 508v401q0 273 242 273h82q104 0 168 -73t65 -208q0 -14 -18 -14h-74q-23 0 -23 18q0 96 -26 135t-92 39h-82q-51 0 -76 -11t-38 -46.5t-13 -106.5v-413q0 -102 26.5 -133t100.5 -31h82q66 0 92.5 39.5t25.5 136.5q0 18 23 18h74 q18 0 18 -14q-1 -136 -65 -209t-168 -73h-82q-242 0 -242 272z" />
<glyph unicode="&#xaa;" horiz-adv-x="653" d="M102 1122q0 73 52.5 117.5t138.5 44.5h178q-3 121 -102 121h-52q-86 0 -145 -51q-8 -6 -18 -6.5t-13 6.5l-22 28q-12 15 0 27q75 78 196 78h50q78 0 130 -60.5t52 -146.5v-287q0 -12 2 -18q2 -3 1 -7.5t-5 -4.5h-51q-23 0 -23 30v19q-67 -49 -147 -49h-31 q-79 0 -135 42.5t-56 116.5zM182 1122q0 -75 111 -75h31q55 0 86.5 15t60.5 44v94h-178q-111 0 -111 -78z" />
<glyph unicode="&#xab;" horiz-adv-x="1191" d="M113 494v65q0 8 2.5 14t5 8.5t10.5 8t12 8.5l385 291q14 10 25.5 4t11.5 -21v-98q0 -10 -5.5 -18t-11 -12.5t-20.5 -14.5l-268 -203l268 -200q3 -3 9 -7t8.5 -6t6.5 -5.5t6 -6t4 -6t2.5 -7t0.5 -7.5v-101q0 -15 -11.5 -20.5t-25.5 4.5l-385 291q-4 3 -12 8.5t-10.5 8 t-5 8.5t-2.5 14zM627 494v65q0 8 2.5 14t5 8.5t10.5 8t12 8.5l385 291q14 10 25.5 4t11.5 -21v-98q0 -10 -5.5 -18t-11 -12.5t-20.5 -14.5l-270 -203l270 -200q3 -3 9 -7t8.5 -6t6.5 -5.5t6 -6t4 -6t2.5 -7t0.5 -7.5v-101q0 -15 -11.5 -20.5t-25.5 4.5l-385 291 q-4 3 -12 8.5t-10.5 8t-5 8.5t-2.5 14z" />
<glyph unicode="&#xac;" horiz-adv-x="1052" d="M123 649v43q0 31 31 31h745q31 0 31 -31v-43v-360q0 -31 -31 -31h-43q-31 0 -31 31v329h-671q-31 0 -31 31z" />
<glyph unicode="&#xad;" horiz-adv-x="847" d="M123 496v34q0 31 31 31h540q31 0 31 -31v-34q0 -31 -31 -31h-540q-31 0 -31 31z" />
<glyph unicode="&#xae;" horiz-adv-x="1253" d="M113 436v541q0 222 123 344.5t325 122.5h129q203 0 327 -122.5t124 -344.5v-541q0 -223 -123.5 -343t-327.5 -120h-129q-203 0 -325.5 120t-122.5 343zM223 438q0 -185 88 -275.5t250 -90.5h129q163 0 251.5 90t88.5 276v539q0 184 -89 277.5t-251 93.5h-129 q-160 0 -249 -93.5t-89 -277.5v-539zM373 305v797q0 23 17 40t40 17h240q110 0 168.5 -69.5t58.5 -200.5q0 -145 -94 -211q90 -69 90 -219v-154q0 -14 -8.5 -24.5t-20.5 -10.5h-51q-13 0 -22 10.5t-9 24.5v148q0 91 -20 128t-90 37h-187v-313q0 -15 -8 -25t-20 -10h-56 q-28 0 -28 35zM485 715h187q33 0 55.5 9t34.5 22t18 39.5t7 47.5t1 60q0 40 -1 60t-7 43.5t-18.5 33t-34 16.5t-55.5 7h-187v-338z" />
<glyph unicode="&#xaf;" horiz-adv-x="929" d="M102 1362v41q0 31 31 31h664q30 0 30 -31v-41q0 -31 -30 -31h-664q-31 0 -31 31z" />
<glyph unicode="&#xb0;" horiz-adv-x="841" d="M123 1122v23q0 133 76.5 216t206.5 83h30q128 0 205.5 -83.5t77.5 -215.5v-23q0 -132 -77.5 -215.5t-205.5 -83.5h-30q-130 0 -206.5 83t-76.5 216zM233 1124q0 -91 44 -140.5t133 -49.5h26q87 0 130.5 49.5t43.5 140.5v19q0 192 -174 192h-26q-177 0 -177 -192v-19z" />
<glyph unicode="&#xb1;" horiz-adv-x="1052" d="M123 31v43q0 30 31 30h747q29 0 29 -30v-43q0 -31 -31 -31h-745q-31 0 -31 31zM123 635v43q0 31 31 31h323v346q0 30 31 30h43q31 0 31 -30v-346h319q29 0 29 -31v-43q0 -31 -31 -31h-317v-350q0 -31 -31 -31h-43q-31 0 -31 31v350h-323q-31 0 -31 31z" />
<glyph unicode="&#xb2;" horiz-adv-x="655" d="M123 1290v27q0 68 51.5 119t124.5 51h51q79 0 129.5 -61t50.5 -136q0 -55 -33 -103.5t-98 -113.5l-104 -104l207 4q30 0 30 -31v-59q0 -31 -30 -31h-344q-31 0 -31 31v49q0 18 4.5 32t8.5 19.5t19.5 21t22.5 23.5l144 154q8 8 25 24t27 26t19 26t9 32q0 33 -24 56.5 t-60 23.5q-32 0 -54 -19t-22 -46v-15q0 -30 -31 -30h-61q-31 0 -31 30z" />
<glyph unicode="&#xb3;" horiz-adv-x="653" d="M125 1024v27q0 30 31 30h61q31 0 31 -30v-15q0 -27 22 -46t54 -19q38 0 61 19t23 52q0 32 -22 54t-56 22h-47q-31 0 -31 31v45q0 31 31 31h47q34 0 56 21.5t22 53.5q0 33 -23.5 52.5t-60.5 19.5q-32 0 -54 -19t-22 -46v-15q0 -30 -31 -30h-61q-31 0 -31 30v27 q0 68 51.5 119t124.5 51h51q80 0 130 -56t50 -130q0 -70 -69 -132q69 -62 69 -131q0 -74 -50 -130t-130 -56h-51q-73 0 -124.5 51t-51.5 119z" />
<glyph unicode="&#xb4;" horiz-adv-x="512" d="M106.5 1134q-6.5 10 2.5 27l151 236q12 21 20.5 29t22.5 8h78q19 0 25.5 -10t-5.5 -27l-186 -236q-5 -6 -12 -15t-10 -12.5t-8.5 -6.5t-12.5 -3h-43q-16 0 -22.5 10z" />
<glyph unicode="&#xb6;" horiz-adv-x="1153" d="M102 1016q0 195 108 306.5t292 111.5h237h248q31 0 31 -31v-701v-671q0 -31 -31 -31h-43q-31 0 -31 31v567h-143v-567q0 -31 -31 -31h-43q-30 0 -30 31v567h-164q-184 0 -292 111.5t-108 306.5zM207 1016q0 -314 293 -314h166v627h-166q-293 0 -293 -313zM770 702h143 v627h-143v-627z" />
<glyph unicode="&#xb7;" horiz-adv-x="342" d="M102 573v97q0 30 31 30h76q31 0 31 -30v-97q0 -30 -31 -30h-76q-31 0 -31 30z" />
<glyph unicode="&#xb8;" horiz-adv-x="647" d="M106 -250q0 21 19 21h53q8 0 14.5 -5t6.5 -12q3 -40 25 -58t79 -18h39q60 0 83.5 13t23.5 49q0 31 -35 41.5t-151 24.5q-42 5 -66 8q-11 1 -22 6.5t-21 18.5t-12.5 32.5t8.5 52.5t38 74q13 16 23 16h63q9 0 13 -5t0 -11q-11 -16 -17.5 -29.5t-11 -23.5t-3.5 -18.5t1 -14 t6.5 -10t8.5 -6.5t12.5 -4.5t13.5 -3t15 -2t14 -1.5q12 -1 36.5 -4t36 -4.5t32.5 -5t31.5 -8t26 -11.5t23.5 -17t16 -23t11.5 -30.5t3.5 -39.5q0 -77 -41 -114.5t-137 -37.5h-82q-85 0 -130 41.5t-47 118.5z" />
<glyph unicode="&#xb9;" horiz-adv-x="618" d="M246 885v571q0 31 30 31h66q31 0 31 -31v-571q0 -31 -31 -31h-66q-30 0 -30 31z" />
<glyph unicode="&#xba;" horiz-adv-x="663" d="M102 219v88q0 88 60 152.5t147 64.5h45q85 0 146 -65t61 -152v-88q0 -90 -60.5 -154.5t-146.5 -64.5h-45q-87 0 -147 64.5t-60 154.5zM184 217q0 -56 35 -96.5t92 -40.5h41q54 0 91.5 41t37.5 96v92q0 55 -37 95t-92 40h-41q-57 0 -92 -39.5t-35 -95.5v-92z" />
<glyph unicode="&#xbb;" horiz-adv-x="1191" d="M113 180v101q0 5 1.5 9.5t3 7t5.5 7t6.5 6.5t10 7t10.5 8l270 200l-270 203q-15 10 -20.5 14.5t-11 12.5t-5.5 18v98q0 15 11.5 21t25.5 -4l385 -291q4 -3 12 -8.5t10.5 -8t5 -8.5t2.5 -14v-65q0 -8 -2.5 -14t-5 -8.5t-10.5 -8t-12 -8.5l-385 -291q-14 -10 -25.5 -4.5 t-11.5 20.5zM627 180v101q0 5 1.5 9.5t3 7t5.5 7t6.5 6.5t10 7t10.5 8l268 200l-268 203q-15 10 -20.5 14.5t-11 12.5t-5.5 18v98q0 15 11.5 21t25.5 -4l385 -291q4 -3 12 -8.5t10.5 -8t5 -8.5t2.5 -14v-65q0 -8 -2.5 -14t-5 -8.5t-10.5 -8t-12 -8.5l-385 -291 q-14 -10 -25.5 -4.5t-11.5 20.5z" />
<glyph unicode="&#xbc;" horiz-adv-x="1511" d="M215.5 8q-6.5 8 1.5 23l827 1425q10 17 18.5 24t22.5 7h78q16 0 22.5 -8t-1.5 -23l-828 -1425q-10 -17 -18.5 -24t-22.5 -7h-77q-16 0 -22.5 8zM246 885v571q0 31 30 31h66q31 0 31 -31v-571q0 -31 -31 -31h-66q-30 0 -30 31zM946 209q0 8 8 24l217 388q7 14 29 14h98 q31 0 31 -31v-362h29q31 0 31 -31v-61q0 -31 -31 -31h-29v-88q0 -31 -31 -31h-61q-31 0 -31 31v88h-223q-28 0 -31 31zM1102 246h104v205z" />
<glyph unicode="&#xbd;" horiz-adv-x="1478" d="M215.5 8q-6.5 8 1.5 23l827 1425q10 17 18.5 24t22.5 7h78q16 0 22.5 -8t-1.5 -23l-828 -1425q-10 -17 -18.5 -24t-22.5 -7h-77q-16 0 -22.5 8zM246 885v571q0 31 30 31h66q31 0 31 -31v-571q0 -31 -31 -31h-66q-30 0 -30 31zM946 438v27q0 68 51.5 119t124.5 51h52 q79 0 129.5 -61t50.5 -136q0 -55 -33 -103.5t-98 -113.5l-105 -104l207 4q31 0 31 -31v-59q0 -31 -31 -31h-344q-31 0 -31 31v49q0 18 4.5 32t9 20t19.5 20.5t23 23.5l143 154q8 8 25 24t27 26t19 26t9 32q0 33 -24 56.5t-60 23.5q-32 0 -54 -19t-22 -46v-15q0 -30 -31 -30 h-61q-31 0 -31 30z" />
<glyph unicode="&#xbe;" horiz-adv-x="1546" d="M123 1024v27q0 30 31 30h61q31 0 31 -30v-15q0 -27 22 -46t54 -19q38 0 61 19t23 52q0 32 -22 54t-56 22h-47q-31 0 -31 31v45q0 31 31 31h47q34 0 56 21.5t22 53.5q0 33 -23.5 52.5t-60.5 19.5q-32 0 -54 -19t-22 -46v-15q0 -30 -31 -30h-61q-31 0 -31 30v27 q0 68 51.5 119t124.5 51h51q80 0 130 -56t50 -130q0 -70 -69 -132q69 -62 69 -131q0 -74 -50 -130t-130 -56h-51q-73 0 -124.5 51t-51.5 119zM250 8q-6 8 2 23l827 1425q10 17 18.5 24t22.5 7h78q16 0 22.5 -8t-1.5 -23l-828 -1425q-10 -17 -18.5 -24t-22.5 -7h-78 q-16 0 -22 8zM981 209q0 8 8 24l217 388q7 14 29 14h98q31 0 31 -31v-362h29q30 0 30 -31v-61q0 -31 -30 -31h-29v-88q0 -31 -31 -31h-61q-31 0 -31 31v88h-223q-28 0 -31 31zM1137 246h104v205z" />
<glyph unicode="&#xbf;" horiz-adv-x="1036" d="M72 2q0 75 15.5 133.5t39 96t62 67.5t72 46t81.5 32q116 43 151 76t35 112v99q0 30 31 30h41q31 0 31 -30v-93q0 -108 -45.5 -165t-151.5 -97q-115 -43 -156 -71q-87 -60 -99 -183q-3 -25 -3 -53q0 -99 17 -162.5t55.5 -100.5t92.5 -51t138 -14h84q77 0 127.5 12.5 t88.5 46t56.5 93.5t22.5 154q0 28 29 28h49q29 0 29 -28q-9 -218 -109.5 -312t-292.5 -94h-84q-204 0 -305.5 101t-101.5 327zM520 940v55q0 31 31 31h57q31 0 31 -31v-55q0 -31 -31 -31h-57q-31 0 -31 31z" />
<glyph unicode="&#xc0;" horiz-adv-x="1146" d="M66 33l442 1368q10 33 39 33h53q29 0 39 -33l442 -1368q11 -33 -24 -33h-45q-28 0 -37 33l-113 354h-577l-113 -354q-9 -33 -37 -33h-45q-35 0 -24 33zM315 481h516l-258 811zM322.5 1833q6.5 10 25.5 10h78q14 0 22.5 -8t20.5 -29l152 -235q9 -17 2 -27t-23 -10h-43 q-7 0 -12.5 3t-8.5 6.5t-10 12.5t-12 15l-186 235q-12 17 -5.5 27z" />
<glyph unicode="&#xc1;" horiz-adv-x="1146" d="M66 33l442 1368q10 33 39 33h53q29 0 39 -33l442 -1368q11 -33 -24 -33h-45q-28 0 -37 33l-113 354h-577l-113 -354q-9 -33 -37 -33h-45q-35 0 -24 33zM315 481h516l-258 811zM526 1544q-7 10 2 27l152 235q12 21 20.5 29t22.5 8h78q19 0 25.5 -10t-5.5 -27l-186 -235 q-5 -6 -12 -15t-10 -12.5t-8.5 -6.5t-12.5 -3h-43q-16 0 -23 10z" />
<glyph unicode="&#xc2;" horiz-adv-x="1146" d="M66 33l442 1368q10 33 39 33h53q29 0 39 -33l442 -1368q11 -33 -24 -33h-45q-28 0 -37 33l-113 354h-577l-113 -354q-9 -33 -37 -33h-45q-35 0 -24 33zM234.5 1526.5q-6.5 13.5 5.5 25.5l264 258q4 3 12.5 10.5t13.5 11.5t13 7.5t16 3.5h25q8 0 16.5 -3.5t12.5 -6.5 t14.5 -11.5t13.5 -11.5l264 -258q12 -12 5.5 -25.5t-21.5 -13.5h-45q-23 0 -62 39l-211 207l-209 -207q-39 -39 -61 -39h-45q-15 0 -21.5 13.5zM315 481h516l-258 811z" />
<glyph unicode="&#xc3;" horiz-adv-x="1146" d="M66 33l442 1368q10 33 39 33h53q29 0 39 -33l442 -1368q11 -33 -24 -33h-45q-28 0 -37 33l-113 354h-577l-113 -354q-9 -33 -37 -33h-45q-35 0 -24 33zM221 1737q-13 21 12 39q101 72 177 73t174 -63q56 -31 81.5 -42.5t59 -11t61 15t84.5 50.5q7 8 14 5t10 -6.5t9 -14.5 l23 -31q11 -17 -15 -39q-102 -72 -176.5 -73.5t-173.5 63.5q-55 31 -80.5 42.5t-59.5 11t-62 -15t-85 -50.5q-13 -7 -18 -3.5t-14 19.5zM315 481h516l-258 811z" />
<glyph unicode="&#xc4;" horiz-adv-x="1146" d="M66 33l442 1368q10 33 39 33h53q29 0 39 -33l442 -1368q11 -33 -24 -33h-45q-28 0 -37 33l-113 354h-577l-113 -354q-9 -33 -37 -33h-45q-35 0 -24 33zM240 1767v45q0 31 30 31h33q31 0 31 -31v-45q0 -30 -31 -30h-33q-30 0 -30 30zM315 481h516l-258 811zM813 1767v45 q0 31 31 31h30q31 0 31 -31v-45q0 -30 -31 -30h-30q-31 0 -31 30z" />
<glyph unicode="&#xc5;" horiz-adv-x="1146" d="M66 33l442 1368q10 33 39 33h53q29 0 39 -33l442 -1368q11 -33 -24 -33h-45q-28 0 -37 33l-113 354h-577l-113 -354q-9 -33 -37 -33h-45q-35 0 -24 33zM315 481h516l-258 811zM387 1681v23q0 73 49 122.5t123 49.5h27q74 0 123 -49.5t49 -122.5v-23q0 -73 -49 -121.5 t-123 -48.5h-27q-75 0 -123.5 48.5t-48.5 121.5zM469 1686q0 -45 24.5 -70t69.5 -25h19q45 0 69.5 25t24.5 70v16q0 45 -24.5 69.5t-69.5 24.5h-19q-45 0 -69.5 -24.5t-24.5 -69.5v-16z" />
<glyph unicode="&#xc6;" horiz-adv-x="1757" d="M55.5 8q-6.5 8 1.5 23l787 1372q8 16 14 20q7 11 25 11h57h694q31 0 31 -31v-37q0 -31 -31 -31h-678v-590h521q30 0 30 -30v-37q0 -31 -30 -31h-521v-549h689q30 0 30 -30v-37q0 -31 -30 -31h-762q-31 0 -31 31v340h-483l-195 -340q-10 -17 -18.5 -24t-22.5 -7h-55 q-16 0 -22.5 8zM422 463h430v751z" />
<glyph unicode="&#xc7;" horiz-adv-x="1165" d="M113 416v602q0 212 106 319t305 107h127q194 0 300 -103.5t112 -314.5q0 -13 -8.5 -21t-20.5 -8h-45q-14 0 -22.5 8t-8.5 21q-6 171 -77.5 245.5t-229.5 74.5h-127q-162 0 -234.5 -78.5t-72.5 -249.5v-602q0 -171 72.5 -249.5t234.5 -78.5h127q158 0 229.5 74.5 t77.5 245.5q0 28 31 28h45q12 0 20.5 -7.5t8.5 -20.5q-6 -211 -112 -314.5t-300 -103.5h-24q-9 -15 -14.5 -27.5t-9 -21.5t-2 -16.5t2 -12.5t7 -9.5t8.5 -6.5t12 -4.5t12.5 -3t14.5 -2t14 -1.5q12 -1 36.5 -4t36 -4.5t32.5 -5t31.5 -8t26 -11.5t23.5 -17t16 -23t11.5 -30.5 t3.5 -39.5q0 -77 -41 -114.5t-137 -37.5h-82q-85 0 -129.5 41.5t-46.5 118.5q0 21 18 21h53q8 0 14.5 -5t6.5 -12q3 -40 25 -58t79 -18h39q60 0 83.5 13t23.5 49q0 31 -35 41.5t-151 24.5q-42 5 -66 8q-11 1 -22 6t-21 18t-13 31t7 50t34 71h-4q-199 0 -305 107t-106 319z " />
<glyph unicode="&#xc8;" horiz-adv-x="1036" d="M133 31v1372q0 31 31 31h749q31 0 31 -31v-37q0 -31 -31 -31h-675v-590h520q30 0 30 -30v-37q0 -31 -30 -31h-520v-549h686q30 0 30 -30v-37q0 -31 -30 -31h-760q-31 0 -31 31zM287.5 1833q6.5 10 25.5 10h78q14 0 22.5 -8t20.5 -29l152 -235q9 -17 2 -27t-23 -10h-43 q-7 0 -12.5 3t-8.5 6.5t-10 12.5t-12 15l-186 235q-12 17 -5.5 27z" />
<glyph unicode="&#xc9;" horiz-adv-x="1036" d="M133 31v1372q0 31 31 31h749q31 0 31 -31v-37q0 -31 -31 -31h-675v-590h520q30 0 30 -30v-37q0 -31 -30 -31h-520v-549h686q30 0 30 -30v-37q0 -31 -30 -31h-760q-31 0 -31 31zM491.5 1544q-6.5 10 2.5 27l151 235q12 21 20.5 29t22.5 8h78q19 0 25.5 -10t-5.5 -27 l-186 -235q-5 -6 -12 -15t-10 -12.5t-8.5 -6.5t-12.5 -3h-43q-16 0 -22.5 10z" />
<glyph unicode="&#xca;" horiz-adv-x="1036" d="M133 31v1372q0 31 31 31h749q31 0 31 -31v-37q0 -31 -31 -31h-675v-590h520q30 0 30 -30v-37q0 -31 -30 -31h-520v-549h686q30 0 30 -30v-37q0 -31 -30 -31h-760q-31 0 -31 31zM201.5 1526.5q-6.5 13.5 5.5 25.5l264 258q4 3 12.5 10.5t13.5 11.5t13 7.5t16 3.5h25 q8 0 16.5 -3.5t12.5 -6.5t14.5 -11.5t13.5 -11.5l264 -258q12 -12 5.5 -25.5t-21.5 -13.5h-45q-22 0 -61 39l-211 207l-209 -207q-39 -39 -62 -39h-45q-15 0 -21.5 13.5z" />
<glyph unicode="&#xcb;" horiz-adv-x="1036" d="M133 31v1372q0 31 31 31h749q31 0 31 -31v-37q0 -31 -31 -31h-675v-590h520q30 0 30 -30v-37q0 -31 -30 -31h-520v-549h686q30 0 30 -30v-37q0 -31 -30 -31h-760q-31 0 -31 31zM205 1767v45q0 31 31 31h32q31 0 31 -31v-45q0 -30 -31 -30h-32q-31 0 -31 30zM778 1767v45 q0 31 31 31h31q30 0 30 -31v-45q0 -30 -30 -30h-31q-31 0 -31 30z" />
<glyph unicode="&#xcc;" horiz-adv-x="370" d="M-66.5 1833q6.5 10 25.5 10h78q14 0 22.5 -8t20.5 -29l151 -235q9 -17 2.5 -27t-22.5 -10h-43q-7 0 -12.5 3t-8.5 6.5t-10 12.5t-12 15l-186 235q-12 17 -5.5 27zM133 31v1372q0 31 31 31h43q31 0 31 -31v-1372q0 -31 -31 -31h-43q-31 0 -31 31z" />
<glyph unicode="&#xcd;" horiz-adv-x="370" d="M133 31v1372q0 31 31 31h43q31 0 31 -31v-1372q0 -31 -31 -31h-43q-31 0 -31 31zM137 1544q-7 10 2 27l152 235q12 21 20.5 29t22.5 8h78q19 0 25.5 -10t-5.5 -27l-186 -235q-5 -6 -12 -15t-10 -12.5t-8.5 -6.5t-12.5 -3h-43q-16 0 -23 10z" />
<glyph unicode="&#xce;" horiz-adv-x="370" d="M-152.5 1526.5q-6.5 13.5 5.5 25.5l264 258q4 3 12.5 10.5t13.5 11.5t13 7.5t16 3.5h25q7 0 12.5 -1.5t12 -6t9.5 -7t11 -9.5t10 -9l266 -258q12 -12 5.5 -25.5t-21.5 -13.5h-45q-23 0 -62 39l-211 207l-209 -207q-39 -39 -61 -39h-45q-15 0 -21.5 13.5zM133 31v1372 q0 31 31 31h43q31 0 31 -31v-1372q0 -31 -31 -31h-43q-31 0 -31 31z" />
<glyph unicode="&#xcf;" horiz-adv-x="370" d="M-147 1767v45q0 31 30 31h33q31 0 31 -31v-45q0 -30 -31 -30h-33q-30 0 -30 30zM133 31v1372q0 31 31 31h43q31 0 31 -31v-1372q0 -31 -31 -31h-43q-31 0 -31 31zM426 1767v45q0 31 31 31h30q31 0 31 -31v-45q0 -30 -31 -30h-30q-31 0 -31 30z" />
<glyph unicode="&#xd0;" horiz-adv-x="1196" d="M31 690v35q0 31 30 31h123v647q0 31 31 31h43h447q192 0 295.5 -101.5t103.5 -306.5v-618q0 -205 -103.5 -306.5t-295.5 -101.5h-459h-31q-31 0 -31 31v628h-123q-30 0 -30 31zM289 98h416q154 0 224 73t70 237v618q0 164 -70 236.5t-224 72.5h-416v-579h313q31 0 31 -31 v-35q0 -31 -31 -31h-313v-561z" />
<glyph unicode="&#xd1;" d="M133 31v1372q0 31 31 31h108q26 0 37 -23l639 -1315v1307q0 31 31 31h43q31 0 31 -31v-1372q0 -31 -31 -31h-109q-25 0 -36 23l-639 1314v-1306q0 -31 -31 -31h-43q-31 0 -31 31zM242 1737q-13 21 12 39q101 72 176.5 73t173.5 -63q56 -31 81.5 -42.5t59.5 -11t61.5 15 t84.5 50.5q7 8 14 5t10 -6.5t9 -14.5l22 -31q11 -18 -14 -39q-102 -72 -176.5 -73.5t-173.5 63.5q-55 31 -80.5 42.5t-59.5 11t-62 -15t-85 -50.5q-13 -7 -18.5 -3.5t-14.5 19.5z" />
<glyph unicode="&#xd2;" d="M113 416v602q0 212 106 319t305 107h138q198 0 304.5 -107t106.5 -319v-602q0 -212 -106.5 -319t-304.5 -107h-138q-199 0 -305 107t-106 319zM217 416q0 -171 72.5 -249.5t234.5 -78.5h138q162 0 234.5 78.5t72.5 249.5v602q0 171 -72.5 249.5t-234.5 78.5h-138 q-162 0 -234.5 -78.5t-72.5 -249.5v-602zM343 1833q7 10 26 10h77q14 0 22.5 -8t20.5 -29l152 -235q9 -17 2.5 -27t-22.5 -10h-43q-7 0 -12.5 3t-8.5 6.5t-10 12.5t-12 15l-187 235q-12 17 -5 27z" />
<glyph unicode="&#xd3;" d="M113 416v602q0 212 106 319t305 107h138q198 0 304.5 -107t106.5 -319v-602q0 -212 -106.5 -319t-304.5 -107h-138q-199 0 -305 107t-106 319zM217 416q0 -171 72.5 -249.5t234.5 -78.5h138q162 0 234.5 78.5t72.5 249.5v602q0 171 -72.5 249.5t-234.5 78.5h-138 q-162 0 -234.5 -78.5t-72.5 -249.5v-602zM544.5 1544q-6.5 10 2.5 27l151 235q12 21 20.5 29t22.5 8h78q19 0 26 -10t-5 -27l-187 -235q-5 -6 -12 -15t-10 -12.5t-8.5 -6.5t-12.5 -3h-43q-16 0 -22.5 10z" />
<glyph unicode="&#xd4;" d="M113 416v602q0 212 106 319t305 107h138q198 0 304.5 -107t106.5 -319v-602q0 -212 -106.5 -319t-304.5 -107h-138q-199 0 -305 107t-106 319zM217 416q0 -171 72.5 -249.5t234.5 -78.5h138q162 0 234.5 78.5t72.5 249.5v602q0 171 -72.5 249.5t-234.5 78.5h-138 q-162 0 -234.5 -78.5t-72.5 -249.5v-602zM254.5 1526.5q-6.5 13.5 5.5 25.5l264 258q4 3 12.5 10.5t13.5 11.5t13.5 7.5t16.5 3.5h24q8 0 17 -3.5t12.5 -6t15 -12.5t13.5 -11l264 -258q12 -12 5 -25.5t-22 -13.5h-45q-22 0 -61 39l-211 207l-209 -207q-39 -39 -61 -39h-46 q-15 0 -21.5 13.5z" />
<glyph unicode="&#xd5;" d="M113 416v602q0 212 106 319t305 107h138q198 0 304.5 -107t106.5 -319v-602q0 -212 -106.5 -319t-304.5 -107h-138q-199 0 -305 107t-106 319zM217 416q0 -171 72.5 -249.5t234.5 -78.5h138q162 0 234.5 78.5t72.5 249.5v602q0 171 -72.5 249.5t-234.5 78.5h-138 q-162 0 -234.5 -78.5t-72.5 -249.5v-602zM242 1737q-13 21 12 39q101 72 176.5 73t173.5 -63q56 -31 81.5 -42.5t59.5 -11t61.5 15t84.5 50.5q7 8 14 5t10 -6.5t9 -14.5l22 -31q11 -18 -14 -39q-102 -72 -176.5 -73.5t-173.5 63.5q-55 31 -80.5 42.5t-59.5 11t-62 -15 t-85 -50.5q-13 -7 -18.5 -3.5t-14.5 19.5z" />
<glyph unicode="&#xd6;" d="M113 416v602q0 212 106 319t305 107h138q198 0 304.5 -107t106.5 -319v-602q0 -212 -106.5 -319t-304.5 -107h-138q-199 0 -305 107t-106 319zM217 416q0 -171 72.5 -249.5t234.5 -78.5h138q162 0 234.5 78.5t72.5 249.5v602q0 171 -72.5 249.5t-234.5 78.5h-138 q-162 0 -234.5 -78.5t-72.5 -249.5v-602zM260 1767v45q0 31 31 31h33q30 0 30 -31v-45q0 -30 -30 -30h-33q-31 0 -31 30zM834 1767v45q0 31 30 31h31q31 0 31 -31v-45q0 -30 -31 -30h-31q-30 0 -30 30z" />
<glyph unicode="&#xd7;" horiz-adv-x="825" d="M111 391q-21 21 0 43l229 230l-225 223q-21 21 0 43l30 31q21 21 43 0l224 -226l227 228q22 22 43 -2l33 -29q18 -25 -2 -45l-228 -225l228 -226q21 -22 0 -43l-31 -31q-22 -22 -43 0l-225 226l-228 -228q-24 -21 -45 0z" />
<glyph unicode="&#xd8;" d="M113 416v602q0 212 106 319t305 107h138q100 0 176 -27l16 39q12 31 41 31h55q33 0 21 -31l-39 -90q141 -107 141 -348v-602q0 -212 -106.5 -319t-304.5 -107h-138q-102 0 -184 28l-16 -38q-12 -31 -41 -31h-56q-32 0 -20 31l41 92q-135 107 -135 344zM217 416 q0 -170 72 -248l508 1159q-59 19 -135 19h-138q-162 0 -234.5 -78.5t-72.5 -249.5v-602zM381 109q59 -21 143 -21h138q162 0 234.5 78.5t72.5 249.5v602q0 176 -78 254z" />
<glyph unicode="&#xd9;" horiz-adv-x="1226" d="M133 416v989q0 12 8.5 20.5t20.5 8.5h47q12 0 20.5 -8.5t8.5 -20.5v-989q0 -165 75 -246.5t232 -81.5h137q157 0 232 81.5t75 246.5v989q0 12 8 20.5t21 8.5h45q13 0 22 -8.5t9 -20.5v-989q0 -212 -106.5 -319t-305.5 -107h-137q-201 0 -306.5 106.5t-105.5 319.5z M363.5 1833q6.5 10 25.5 10h78q14 0 22.5 -8t20.5 -29l152 -235q9 -17 2 -27t-23 -10h-43q-7 0 -12.5 3t-8.5 6.5t-10 12.5t-12 15l-186 235q-12 17 -5.5 27z" />
<glyph unicode="&#xda;" horiz-adv-x="1226" d="M133 416v989q0 12 8.5 20.5t20.5 8.5h47q12 0 20.5 -8.5t8.5 -20.5v-989q0 -165 75 -246.5t232 -81.5h137q157 0 232 81.5t75 246.5v989q0 12 8 20.5t21 8.5h45q13 0 22 -8.5t9 -20.5v-989q0 -212 -106.5 -319t-305.5 -107h-137q-201 0 -306.5 106.5t-105.5 319.5z M565 1544q-7 10 2 27l152 235q12 21 20.5 29t22.5 8h78q19 0 25.5 -10t-5.5 -27l-186 -235q-5 -6 -12 -15t-10 -12.5t-8.5 -6.5t-12.5 -3h-43q-16 0 -23 10z" />
<glyph unicode="&#xdb;" horiz-adv-x="1226" d="M133 416v989q0 12 8.5 20.5t20.5 8.5h47q12 0 20.5 -8.5t8.5 -20.5v-989q0 -165 75 -246.5t232 -81.5h137q157 0 232 81.5t75 246.5v989q0 12 8 20.5t21 8.5h45q13 0 22 -8.5t9 -20.5v-989q0 -212 -106.5 -319t-305.5 -107h-137q-201 0 -306.5 106.5t-105.5 319.5z M275.5 1526.5q-6.5 13.5 5.5 25.5l264 258q4 3 12.5 10.5t13.5 11.5t13 7.5t16 3.5h25q8 0 16.5 -3.5t12.5 -6.5t14.5 -11.5t13.5 -11.5l264 -258q12 -12 5.5 -25.5t-21.5 -13.5h-45q-23 0 -62 39l-211 207l-209 -207q-39 -39 -61 -39h-45q-15 0 -21.5 13.5z" />
<glyph unicode="&#xdc;" horiz-adv-x="1226" d="M133 416v989q0 12 8.5 20.5t20.5 8.5h47q12 0 20.5 -8.5t8.5 -20.5v-989q0 -165 75 -246.5t232 -81.5h137q157 0 232 81.5t75 246.5v989q0 12 8 20.5t21 8.5h45q13 0 22 -8.5t9 -20.5v-989q0 -212 -106.5 -319t-305.5 -107h-137q-201 0 -306.5 106.5t-105.5 319.5z M281 1767v45q0 31 30 31h33q31 0 31 -31v-45q0 -30 -31 -30h-33q-30 0 -30 30zM854 1767v45q0 31 31 31h30q31 0 31 -31v-45q0 -30 -31 -30h-30q-31 0 -31 30z" />
<glyph unicode="&#xdd;" horiz-adv-x="1134" d="M66 1426q6 8 22 8h59q14 0 22.5 -7t18.5 -24l379 -668l379 668q10 17 18.5 24t22.5 7h60q16 0 22 -8t-2 -23l-449 -772v-600q0 -31 -30 -31h-43q-31 0 -31 31v600l-446 772q-8 15 -2 23zM520 1544q-7 10 2 27l152 235q12 21 20.5 29t22.5 8h78q19 0 25.5 -10t-5.5 -27 l-186 -235q-5 -6 -12 -15t-10 -12.5t-8.5 -6.5t-12.5 -3h-43q-16 0 -23 10z" />
<glyph unicode="&#xde;" horiz-adv-x="1153" d="M133 31v397v733v295q0 31 31 31h43q31 0 31 -31v-295h413q184 0 292 -111.5t108 -306.5t-108 -306t-292 -111h-413v-295q0 -31 -31 -31h-43q-31 0 -31 31zM238 428h417q291 0 291 315q0 316 -291 316h-417v-631z" />
<glyph unicode="&#xdf;" horiz-adv-x="1101" d="M123 1120q0 162 75.5 243t237.5 81h166q163 0 248.5 -82.5t85.5 -241.5v-61q0 -77 -25.5 -137.5t-62 -96.5t-90.5 -69q48 -14 77.5 -26t66.5 -37.5t58 -59t35.5 -90t14.5 -131.5v-56q0 -109 -22.5 -178.5t-74.5 -108.5t-123.5 -54t-181.5 -15h-88q-31 0 -31 31v37 q0 30 31 30h76q76 0 122.5 5t86 19t59.5 41.5t30.5 70.5t10.5 108v117q0 67 -32 117t-83.5 77t-105.5 39.5t-109 12.5h-55q-31 0 -31 30v37q0 31 31 31h55q106 0 181 69.5t75 188.5v59q0 120 -53.5 174t-175.5 54h-166q-122 0 -163.5 -51.5t-41.5 -176.5l-2 -1089 q0 -31 -30 -31h-43q-31 0 -31 31z" />
<glyph unicode="&#xe0;" horiz-adv-x="1001" d="M82 295q0 149 78 222t215 73h407v63q0 165 -51.5 224t-198.5 59h-38q-147 0 -254 -55q-35 -19 -43 2l-23 43q-10 20 16 35q110 71 304 71h38q188 0 269.5 -89.5t81.5 -287.5v-606q0 -15 4 -31q5 -18 -6 -18h-66q-33 0 -33 49v123q-108 -182 -309 -182h-94 q-141 0 -219 77.5t-78 227.5zM182 295q0 -112 49 -159.5t148 -47.5h86q121 0 202.5 61t114.5 166v183h-403q-100 0 -148.5 -46t-48.5 -157zM255 1424q7 10 26 10h77q14 0 22.5 -8t20.5 -29l152 -236q9 -17 2 -27t-23 -10h-43q-7 0 -12.5 3t-8.5 6.5t-10 12.5t-12 15 l-186 236q-12 17 -5 27z" />
<glyph unicode="&#xe1;" horiz-adv-x="1001" d="M82 295q0 149 78 222t215 73h407v63q0 165 -51.5 224t-198.5 59h-38q-147 0 -254 -55q-35 -19 -43 2l-23 43q-10 20 16 35q110 71 304 71h38q188 0 269.5 -89.5t81.5 -287.5v-606q0 -15 4 -31q5 -18 -6 -18h-66q-33 0 -33 49v123q-108 -182 -309 -182h-94 q-141 0 -219 77.5t-78 227.5zM182 295q0 -112 49 -159.5t148 -47.5h86q121 0 202.5 61t114.5 166v183h-403q-100 0 -148.5 -46t-48.5 -157zM458.5 1134q-6.5 10 2.5 27l151 236q12 21 20.5 29t22.5 8h78q19 0 26 -10t-5 -27l-187 -236q-5 -6 -12 -15t-10 -12.5t-8.5 -6.5 t-12.5 -3h-43q-16 0 -22.5 10z" />
<glyph unicode="&#xe2;" horiz-adv-x="1001" d="M82 295q0 149 78 222t215 73h407v63q0 165 -51.5 224t-198.5 59h-38q-147 0 -254 -55q-35 -19 -43 2l-23 43q-10 20 16 35q110 71 304 71h38q188 0 269.5 -89.5t81.5 -287.5v-606q0 -15 4 -31q5 -18 -6 -18h-66q-33 0 -33 49v123q-108 -182 -309 -182h-94 q-141 0 -219 77.5t-78 227.5zM168.5 1117.5q-6.5 13.5 5.5 25.5l264 258q4 3 12.5 10.5t13.5 11.5t13.5 7.5t16.5 3.5h24q8 0 16.5 -3.5t12.5 -6.5t14.5 -11.5t13.5 -11.5l265 -258q12 -12 5 -25.5t-22 -13.5h-45q-22 0 -61 39l-211 207l-209 -207q-39 -39 -61 -39h-46 q-15 0 -21.5 13.5zM182 295q0 -112 49 -159.5t148 -47.5h86q121 0 202.5 61t114.5 166v183h-403q-100 0 -148.5 -46t-48.5 -157z" />
<glyph unicode="&#xe3;" horiz-adv-x="1001" d="M82 295q0 149 78 222t215 73h407v63q0 165 -51.5 224t-198.5 59h-38q-147 0 -254 -55q-35 -19 -43 2l-23 43q-10 20 16 35q110 71 304 71h38q188 0 269.5 -89.5t81.5 -287.5v-606q0 -15 4 -31q5 -18 -6 -18h-66q-33 0 -33 49v123q-108 -182 -309 -182h-94 q-141 0 -219 77.5t-78 227.5zM154 1327q-13 21 12 39q101 72 176.5 73t173.5 -63q99 -56 141 -54.5t146 67.5q15 6 19.5 3t13.5 -20l22 -31q11 -17 -14 -38q-102 -72 -176.5 -74t-173.5 63q-55 31 -80.5 42.5t-59.5 11t-62 -15t-85 -50.5q-13 -7 -18.5 -3.5t-14.5 19.5z M182 295q0 -112 49 -159.5t148 -47.5h86q121 0 202.5 61t114.5 166v183h-403q-100 0 -148.5 -46t-48.5 -157z" />
<glyph unicode="&#xe4;" horiz-adv-x="1001" d="M82 295q0 149 78 222t215 73h407v63q0 165 -51.5 224t-198.5 59h-38q-147 0 -254 -55q-35 -19 -43 2l-23 43q-10 20 16 35q110 71 304 71h38q188 0 269.5 -89.5t81.5 -287.5v-606q0 -15 4 -31q5 -18 -6 -18h-66q-33 0 -33 49v123q-108 -182 -309 -182h-94 q-141 0 -219 77.5t-78 227.5zM172 1358v45q0 31 31 31h33q30 0 30 -31v-45q0 -31 -30 -31h-33q-31 0 -31 31zM182 295q0 -112 49 -159.5t148 -47.5h86q121 0 202.5 61t114.5 166v183h-403q-100 0 -148.5 -46t-48.5 -157zM745 1358v45q0 31 31 31h31q31 0 31 -31v-45 q0 -31 -31 -31h-31q-31 0 -31 31z" />
<glyph unicode="&#xe5;" horiz-adv-x="1001" d="M82 295q0 149 78 222t215 73h407v63q0 165 -51.5 224t-198.5 59h-38q-147 0 -254 -55q-35 -19 -43 2l-23 43q-10 20 16 35q110 71 304 71h38q188 0 269.5 -89.5t81.5 -287.5v-606q0 -15 4 -31q5 -18 -6 -18h-66q-33 0 -33 49v123q-108 -182 -309 -182h-94 q-141 0 -219 77.5t-78 227.5zM182 295q0 -112 49 -159.5t148 -47.5h86q121 0 202.5 61t114.5 166v183h-403q-100 0 -148.5 -46t-48.5 -157zM319 1272v22q0 73 49.5 122.5t123.5 49.5h26q74 0 123 -49.5t49 -122.5v-22q0 -72 -49 -121t-123 -49h-26q-75 0 -124 49t-49 121z M401 1276q0 -44 24.5 -69t70.5 -25h18q45 0 69.5 24.5t24.5 69.5v16q0 45 -24.5 69.5t-69.5 24.5h-18q-46 0 -70.5 -25t-24.5 -69v-16z" />
<glyph unicode="&#xe6;" horiz-adv-x="1681" d="M82 279q0 136 78 209t209 73h430v92q0 165 -54 224t-204 59h-45q-145 0 -252 -55q-32 -18 -47 6l-21 37q-16 24 12 41q106 67 308 67h45q237 0 315 -153q47 76 127 114.5t184 38.5h68q66 0 128.5 -24.5t113.5 -70t81.5 -117t30.5 -158.5v-130q0 -29 -17 -46t-48 -17h-621 v-121q0 -125 68.5 -192.5t195.5 -67.5h68q21 0 40 2t34 4.5t30 8.5l25 10t23 14l19.5 15t19.5 18.5t18 19t18.5 21.5t18.5 22q11 13 19 14.5t24 -8.5l26 -18q24 -17 4 -43q-30 -37 -45.5 -54.5t-47.5 -46t-60.5 -42t-72 -24.5t-93.5 -11h-68q-127 0 -219.5 59.5 t-128.5 167.5q-118 -227 -350 -227h-96q-131 0 -211 75t-80 214zM182 279q0 -103 47 -147t144 -44h90q124 0 214 64t124 170q-2 10 -2 32v74v41h-426q-95 0 -143 -45t-48 -145zM903 561h584v92q0 137 -70 209t-182 72h-68q-129 0 -196.5 -70t-67.5 -209v-94z" />
<glyph unicode="&#xe7;" horiz-adv-x="954" d="M92 354v305q0 177 101.5 274t267.5 97h69q133 0 224 -74.5t116 -207.5q3 -14 -4 -22.5t-20 -8.5h-47q-23 0 -33 26q-17 93 -79.5 142t-156.5 49h-69q-129 0 -196.5 -70.5t-67.5 -208.5v-307q0 -125 68.5 -192.5t195.5 -67.5h67q42 0 76 8t54.5 16t46.5 31t36 34.5 t39 45.5q11 13 19 14.5t22 -6.5l29 -22q26 -17 6 -43q-24 -29 -32.5 -39t-31.5 -34.5t-37.5 -34.5t-41 -26.5t-51.5 -23t-60 -12.5t-74 -6h-8q-9 -15 -14.5 -27.5t-9 -21.5t-2 -16.5t2 -12.5t7 -9.5t8.5 -6.5t12 -4.5t12.5 -3t14.5 -2t14 -1.5q12 -1 36.5 -4t36 -4.5 t32.5 -5t31.5 -8t26 -11.5t23.5 -17t16 -23t11.5 -30.5t3.5 -39.5q0 -77 -41 -114.5t-137 -37.5h-82q-85 0 -129.5 41.5t-46.5 118.5q0 21 19 21h53q8 0 14 -5t6 -12q3 -39 25.5 -57.5t79.5 -18.5h39q60 0 83 13t23 49q0 31 -35 41.5t-151 24.5q-42 5 -66 8q-11 1 -22 6 t-21 18t-12 31.5t8 50.5t35 72q-151 11 -241.5 106.5t-90.5 255.5z" />
<glyph unicode="&#xe8;" horiz-adv-x="976" d="M92 354v305q0 178 101.5 275.5t267.5 97.5h67q67 0 130 -24.5t114 -70t82 -117t31 -158.5v-130q0 -29 -18.5 -46t-49.5 -17h-620v-121q0 -125 68.5 -192.5t195.5 -67.5h67q64 0 109.5 18t69 40t57.5 64q6 9 10 13q11 13 19 14.5t24 -8.5l27 -18q25 -18 6 -43 q-36 -44 -59 -67.5t-62.5 -53.5t-89 -43.5t-111.5 -13.5h-67q-164 0 -266.5 97.5t-102.5 266.5zM197 561h583v92q0 137 -70 210t-182 73h-67q-129 0 -196.5 -70.5t-67.5 -210.5v-94zM246.5 1424q6.5 10 25.5 10h78q14 0 22.5 -8t20.5 -29l152 -236q9 -17 2 -27t-23 -10h-43 q-7 0 -12.5 3t-8.5 6.5t-10 12.5t-12 15l-186 236q-12 17 -5.5 27z" />
<glyph unicode="&#xe9;" horiz-adv-x="976" d="M92 354v305q0 178 101.5 275.5t267.5 97.5h67q67 0 130 -24.5t114 -70t82 -117t31 -158.5v-130q0 -29 -18.5 -46t-49.5 -17h-620v-121q0 -125 68.5 -192.5t195.5 -67.5h67q64 0 109.5 18t69 40t57.5 64q6 9 10 13q11 13 19 14.5t24 -8.5l27 -18q25 -18 6 -43 q-36 -44 -59 -67.5t-62.5 -53.5t-89 -43.5t-111.5 -13.5h-67q-164 0 -266.5 97.5t-102.5 266.5zM197 561h583v92q0 137 -70 210t-182 73h-67q-129 0 -196.5 -70.5t-67.5 -210.5v-94zM450.5 1134q-6.5 10 2.5 27l151 236q12 21 20.5 29t22.5 8h78q19 0 25.5 -10t-5.5 -27 l-186 -236q-5 -6 -12 -15t-10 -12.5t-8.5 -6.5t-12.5 -3h-43q-16 0 -22.5 10z" />
<glyph unicode="&#xea;" horiz-adv-x="976" d="M92 354v305q0 178 101.5 275.5t267.5 97.5h67q67 0 130 -24.5t114 -70t82 -117t31 -158.5v-130q0 -29 -18.5 -46t-49.5 -17h-620v-121q0 -125 68.5 -192.5t195.5 -67.5h67q64 0 109.5 18t69 40t57.5 64q6 9 10 13q11 13 19 14.5t24 -8.5l27 -18q25 -18 6 -43 q-36 -44 -59 -67.5t-62.5 -53.5t-89 -43.5t-111.5 -13.5h-67q-164 0 -266.5 97.5t-102.5 266.5zM158.5 1117.5q-6.5 13.5 5.5 25.5l264 258q4 3 12.5 10.5t13.5 11.5t13 7.5t16 3.5h25q8 0 16.5 -3.5t12.5 -6.5t14.5 -11.5t13.5 -11.5l264 -258q12 -12 5.5 -25.5 t-21.5 -13.5h-45q-22 0 -61 39l-211 207l-209 -207q-39 -39 -62 -39h-45q-15 0 -21.5 13.5zM197 561h583v92q0 137 -70 210t-182 73h-67q-129 0 -196.5 -70.5t-67.5 -210.5v-94z" />
<glyph unicode="&#xeb;" horiz-adv-x="976" d="M92 354v305q0 178 101.5 275.5t267.5 97.5h67q67 0 130 -24.5t114 -70t82 -117t31 -158.5v-130q0 -29 -18.5 -46t-49.5 -17h-620v-121q0 -125 68.5 -192.5t195.5 -67.5h67q64 0 109.5 18t69 40t57.5 64q6 9 10 13q11 13 19 14.5t24 -8.5l27 -18q25 -18 6 -43 q-36 -44 -59 -67.5t-62.5 -53.5t-89 -43.5t-111.5 -13.5h-67q-164 0 -266.5 97.5t-102.5 266.5zM164 1358v45q0 31 31 31h32q31 0 31 -31v-45q0 -31 -31 -31h-32q-31 0 -31 31zM197 561h583v92q0 137 -70 210t-182 73h-67q-129 0 -196.5 -70.5t-67.5 -210.5v-94zM737 1358 v45q0 31 31 31h31q30 0 30 -31v-45q0 -31 -30 -31h-31q-31 0 -31 31z" />
<glyph unicode="&#xec;" horiz-adv-x="428" d="M-36 1424q7 10 26 10h78q14 0 22.5 -8t20.5 -29l151 -236q9 -17 2.5 -27t-22.5 -10h-43q-7 0 -12.5 3t-8.5 6.5t-10 12.5t-12 15l-187 236q-12 17 -5 27zM164 31v962q0 31 31 31h38q31 0 31 -31v-962q0 -31 -31 -31h-38q-31 0 -31 31z" />
<glyph unicode="&#xed;" horiz-adv-x="428" d="M164 31v962q0 31 31 31h38q31 0 31 -31v-962q0 -31 -31 -31h-38q-31 0 -31 31zM167.5 1134q-6.5 10 2.5 27l152 236q12 21 20.5 29t22.5 8h77q19 0 26 -10t-5 -27l-187 -236q-5 -6 -12 -15t-10 -12.5t-8.5 -6.5t-12.5 -3h-43q-16 0 -22.5 10z" />
<glyph unicode="&#xee;" horiz-adv-x="428" d="M-124 1117.5q-7 13.5 5 25.5l264 258q4 3 12.5 10.5t13.5 11.5t13.5 7.5t16.5 3.5h24q6 0 11.5 -1.5t9 -3t9.5 -6t8.5 -6.5t9 -8t8.5 -8l266 -258q12 -12 5 -25.5t-22 -13.5h-45q-22 0 -61 39l-211 207l-209 -207q-39 -39 -61 -39h-45q-15 0 -22 13.5zM164 31v962 q0 31 31 31h38q31 0 31 -31v-962q0 -31 -31 -31h-38q-31 0 -31 31z" />
<glyph unicode="&#xef;" horiz-adv-x="428" d="M-119 1358v45q0 31 31 31h33q30 0 30 -31v-45q0 -31 -30 -31h-33q-31 0 -31 31zM164 31v962q0 31 31 31h38q31 0 31 -31v-962q0 -31 -31 -31h-38q-31 0 -31 31zM455 1358v45q0 31 30 31h31q31 0 31 -31v-45q0 -31 -31 -31h-31q-30 0 -30 31z" />
<glyph unicode="&#xf0;" horiz-adv-x="1112" d="M102 422q-5 255 100 375.5t333 120.5q119 0 215 -36.5t139 -84.5q10 137 -19 329q-10 64 -32 111l-93 -121q-24 -35 -47 -35h-67q-19 0 -25 11t4 26l162 209q-82 82 -215 82h-49q-31 0 -31 31v43q0 30 31 30h49q166 0 279 -104l32 43q19 23 27 29t20 6h68q19 0 24.5 -11 t-6.5 -26l-98 -127q64 -103 76 -227q39 -344 8 -682q-19 -204 -126 -319t-273 -115h-78q-181 0 -292.5 113t-115.5 329zM211 418q-1 -170 77.5 -252t217.5 -82h88q121 0 195.5 85.5t89.5 244.5q10 97 -3.5 167.5t-53.5 121.5t-112.5 76t-179.5 26q-72 0 -124 -9.5t-87 -33.5 t-56 -53t-32.5 -77.5t-15 -95t-4.5 -118.5z" />
<glyph unicode="&#xf1;" horiz-adv-x="1005" d="M123 31v962q0 31 31 31h39q30 0 30 -31v-129q117 168 318 168h16q178 0 252 -88t74 -274v-639q0 -31 -31 -31h-39q-31 0 -31 31v633q0 143 -46.5 207.5t-176.5 64.5h-35q-112 0 -189 -52t-112 -110v-743q0 -31 -30 -31h-39q-31 0 -31 31zM152 1327q-13 21 12 39 q101 72 176.5 73t173.5 -63q99 -56 141 -54.5t146 67.5q15 6 19.5 3t13.5 -20l22 -31q11 -17 -14 -38q-102 -72 -176.5 -74t-173.5 63q-55 31 -80.5 42.5t-59.5 11t-62 -15t-85 -50.5q-13 -7 -18.5 -3.5t-14.5 19.5z" />
<glyph unicode="&#xf2;" horiz-adv-x="1003" d="M92 367v292q0 179 99.5 276t265.5 97h88q167 0 266.5 -97t99.5 -276v-292q0 -177 -100 -277t-266 -100h-88q-164 0 -264.5 100t-100.5 277zM193 358q0 -132 68 -201t196 -69h88q129 0 196.5 69t67.5 201v295q0 283 -264 283h-88q-129 0 -196.5 -71t-67.5 -212v-295z M250.5 1424q6.5 10 25.5 10h78q14 0 22.5 -8t20.5 -29l152 -236q9 -17 2 -27t-23 -10h-43q-7 0 -12.5 3t-8.5 6.5t-10 12.5t-12 15l-186 236q-12 17 -5.5 27z" />
<glyph unicode="&#xf3;" horiz-adv-x="1003" d="M92 367v292q0 179 99.5 276t265.5 97h88q167 0 266.5 -97t99.5 -276v-292q0 -177 -100 -277t-266 -100h-88q-164 0 -264.5 100t-100.5 277zM193 358q0 -132 68 -201t196 -69h88q129 0 196.5 69t67.5 201v295q0 283 -264 283h-88q-129 0 -196.5 -71t-67.5 -212v-295z M454.5 1134q-6.5 10 2.5 27l151 236q12 21 20.5 29t22.5 8h78q19 0 26 -10t-5 -27l-187 -236q-5 -6 -12 -15t-10 -12.5t-8.5 -6.5t-12.5 -3h-43q-16 0 -22.5 10z" />
<glyph unicode="&#xf4;" horiz-adv-x="1003" d="M92 367v292q0 179 99.5 276t265.5 97h88q167 0 266.5 -97t99.5 -276v-292q0 -177 -100 -277t-266 -100h-88q-164 0 -264.5 100t-100.5 277zM164.5 1117.5q-6.5 13.5 5.5 25.5l264 258q4 3 12.5 10.5t13.5 11.5t13 7.5t16 3.5h25q8 0 16.5 -3.5t12.5 -6.5t14.5 -11.5 t13.5 -11.5l265 -258q12 -12 5 -25.5t-22 -13.5h-45q-22 0 -61 39l-211 207l-209 -207q-39 -39 -62 -39h-45q-15 0 -21.5 13.5zM193 358q0 -132 68 -201t196 -69h88q129 0 196.5 69t67.5 201v295q0 283 -264 283h-88q-129 0 -196.5 -71t-67.5 -212v-295z" />
<glyph unicode="&#xf5;" horiz-adv-x="1003" d="M92 367v292q0 179 99.5 276t265.5 97h88q167 0 266.5 -97t99.5 -276v-292q0 -177 -100 -277t-266 -100h-88q-164 0 -264.5 100t-100.5 277zM150 1327q-13 21 12 39q101 72 176.5 73t173.5 -63q99 -56 141 -54.5t146 67.5q15 6 19 3t13 -20l23 -31q11 -17 -14 -38 q-102 -72 -177 -74t-174 63q-55 31 -80.5 42.5t-59.5 11t-61.5 -15t-84.5 -50.5q-13 -7 -18.5 -3.5t-14.5 19.5zM193 358q0 -132 68 -201t196 -69h88q129 0 196.5 69t67.5 201v295q0 283 -264 283h-88q-129 0 -196.5 -71t-67.5 -212v-295z" />
<glyph unicode="&#xf6;" horiz-adv-x="1003" d="M92 367v292q0 179 99.5 276t265.5 97h88q167 0 266.5 -97t99.5 -276v-292q0 -177 -100 -277t-266 -100h-88q-164 0 -264.5 100t-100.5 277zM170 1358v45q0 31 31 31h32q31 0 31 -31v-45q0 -31 -31 -31h-32q-31 0 -31 31zM193 358q0 -132 68 -201t196 -69h88 q129 0 196.5 69t67.5 201v295q0 283 -264 283h-88q-129 0 -196.5 -71t-67.5 -212v-295zM743 1358v45q0 31 31 31h31q31 0 31 -31v-45q0 -31 -31 -31h-31q-31 0 -31 31z" />
<glyph unicode="&#xf7;" horiz-adv-x="1052" d="M123 641v43q0 31 31 31h747q29 0 29 -31v-43q0 -31 -31 -31h-745q-31 0 -31 31zM457 309v105q0 30 30 30h82q31 0 31 -30v-105q0 -30 -31 -30h-82q-30 0 -30 30zM457 911v103q0 30 30 30h82q31 0 31 -30v-103q0 -30 -31 -30h-82q-30 0 -30 30z" />
<glyph unicode="&#xf8;" horiz-adv-x="1003" d="M92 367v292q0 179 99.5 276t265.5 97h88q71 0 133 -18q12 30 41 30h37q29 0 20 -30l-18 -37q153 -97 153 -318v-292q0 -177 -100 -277t-266 -100h-88q-69 0 -127 18l-4 -8q-16 -31 -41 -31h-35q-16 0 -22 8t1 23l21 45q-158 98 -158 322zM193 358q0 -156 96 -225l350 791 q-43 12 -94 12h-88q-129 0 -196.5 -71t-67.5 -212v-295zM369 96q36 -8 88 -8h88q129 0 196.5 69t67.5 201v295q0 162 -90 234z" />
<glyph unicode="&#xf9;" horiz-adv-x="1005" d="M123 354v639q0 31 31 31h39q30 0 30 -31v-633q0 -71 9.5 -118t34.5 -83t69.5 -52.5t112.5 -16.5h32q60 0 113 16.5t89.5 43.5t60.5 51.5t38 48.5v743q0 31 31 31h39q31 0 31 -31v-962q0 -31 -31 -31h-39q-31 0 -31 31v129q-117 -168 -317 -168h-16q-176 0 -251 88.5 t-75 273.5zM263 1424q7 10 26 10h78q14 0 22.5 -8t20.5 -29l151 -236q9 -17 2.5 -27t-22.5 -10h-43q-7 0 -12.5 3t-8.5 6.5t-10 12.5t-12 15l-187 236q-12 17 -5 27z" />
<glyph unicode="&#xfa;" horiz-adv-x="1005" d="M123 354v639q0 31 31 31h39q30 0 30 -31v-633q0 -71 9.5 -118t34.5 -83t69.5 -52.5t112.5 -16.5h32q60 0 113 16.5t89.5 43.5t60.5 51.5t38 48.5v743q0 31 31 31h39q31 0 31 -31v-962q0 -31 -31 -31h-39q-31 0 -31 31v129q-117 -168 -317 -168h-16q-176 0 -251 88.5 t-75 273.5zM466.5 1134q-6.5 10 2.5 27l152 236q12 21 20.5 29t22.5 8h77q19 0 26 -10t-5 -27l-187 -236q-5 -6 -12 -15t-10 -12.5t-8.5 -6.5t-12.5 -3h-43q-16 0 -22.5 10z" />
<glyph unicode="&#xfb;" horiz-adv-x="1005" d="M123 354v639q0 31 31 31h39q30 0 30 -31v-633q0 -71 9.5 -118t34.5 -83t69.5 -52.5t112.5 -16.5h32q60 0 113 16.5t89.5 43.5t60.5 51.5t38 48.5v743q0 31 31 31h39q31 0 31 -31v-962q0 -31 -31 -31h-39q-31 0 -31 31v129q-117 -168 -317 -168h-16q-176 0 -251 88.5 t-75 273.5zM177 1117.5q-7 13.5 5 25.5l264 258q4 3 12.5 10.5t13.5 11.5t13.5 7.5t16.5 3.5h24q8 0 17 -3.5t12.5 -6t15 -12.5t13.5 -11l264 -258q12 -12 5 -25.5t-22 -13.5h-45q-22 0 -61 39l-211 207l-209 -207q-39 -39 -61 -39h-45q-15 0 -22 13.5z" />
<glyph unicode="&#xfc;" horiz-adv-x="1005" d="M123 354v639q0 31 31 31h39q30 0 30 -31v-633q0 -71 9.5 -118t34.5 -83t69.5 -52.5t112.5 -16.5h32q60 0 113 16.5t89.5 43.5t60.5 51.5t38 48.5v743q0 31 31 31h39q31 0 31 -31v-962q0 -31 -31 -31h-39q-31 0 -31 31v129q-117 -168 -317 -168h-16q-176 0 -251 88.5 t-75 273.5zM180 1358v45q0 31 31 31h33q30 0 30 -31v-45q0 -31 -30 -31h-33q-31 0 -31 31zM754 1358v45q0 31 30 31h31q31 0 31 -31v-45q0 -31 -31 -31h-31q-30 0 -30 31z" />
<glyph unicode="&#xfd;" horiz-adv-x="964" d="M53 991q-12 33 19 33h49q14 0 20.5 -6.5t14.5 -26.5l325 -825l328 825q6 20 12 26.5t19 6.5h53q30 0 18 -33l-538 -1366q-14 -35 -43 -35h-39q-36 0 -21 37l162 408zM434 1134q-7 10 2 27l152 236q12 21 20.5 29t22.5 8h78q19 0 25.5 -10t-5.5 -27l-186 -236 q-5 -6 -12 -15t-10 -12.5t-8.5 -6.5t-12.5 -3h-43q-16 0 -23 10z" />
<glyph unicode="&#xfe;" horiz-adv-x="1030" d="M123 -379v1835q0 31 31 31h39q30 0 30 -31v-575q64 151 279 151h73q162 0 262.5 -101t100.5 -272v-292q0 -169 -101 -273t-262 -104h-73q-211 0 -279 166v-535q0 -31 -30 -31h-39q-31 0 -31 31zM223 358q0 -132 68 -201t196 -69h86q128 0 196.5 69.5t68.5 200.5v295 q0 141 -68 212t-197 71h-86q-129 0 -196.5 -71t-67.5 -212v-295z" />
<glyph unicode="&#xff;" horiz-adv-x="964" d="M53 991q-12 33 19 33h49q14 0 20.5 -6.5t14.5 -26.5l325 -825l328 825q6 20 12 26.5t19 6.5h53q30 0 18 -33l-538 -1366q-14 -35 -43 -35h-39q-36 0 -21 37l162 408zM150 1358v45q0 31 30 31h33q31 0 31 -31v-45q0 -31 -31 -31h-33q-30 0 -30 31zM723 1358v45q0 31 31 31 h30q31 0 31 -31v-45q0 -31 -31 -31h-30q-31 0 -31 31z" />
<glyph unicode="&#x152;" horiz-adv-x="1871" d="M113 416v602q0 212 106 319t305 107h138q202 0 307 -111v70q0 31 30 31h750q31 0 31 -31v-37q0 -31 -31 -31h-676v-590h518q31 0 31 -30v-37q0 -31 -31 -31h-518v-549h686q31 0 31 -30v-37q0 -31 -31 -31h-760q-30 0 -30 31v69q-104 -110 -307 -110h-138q-199 0 -305 107 t-106 319zM217 416q0 -171 72.5 -249.5t234.5 -78.5h138q162 0 234.5 78.5t72.5 249.5v602q0 171 -72.5 249.5t-234.5 78.5h-138q-162 0 -234.5 -78.5t-72.5 -249.5v-602z" />
<glyph unicode="&#x153;" horiz-adv-x="1693" d="M92 367v292q0 179 99.5 276t265.5 97h88q107 0 188.5 -41.5t126.5 -120.5q45 79 129 120.5t191 41.5h65q67 0 130 -24.5t114 -70t82 -117t31 -158.5v-130q0 -29 -17.5 -46t-48.5 -17h-623v-121q0 -125 69 -192.5t198 -67.5h65q21 0 40 2t34 4t30.5 9t25 10t23.5 14.5 t20 15t20 18.5t17.5 18.5t19 21.5t18.5 22q11 13 18 14.5t23 -8.5l27 -18q25 -18 6 -43q-30 -36 -46 -54t-48 -46.5t-60.5 -42t-72.5 -24.5t-95 -11h-65q-107 0 -191 43t-131 121q-46 -79 -126.5 -121.5t-186.5 -42.5h-88q-164 0 -264.5 100t-100.5 277zM193 358 q0 -132 68 -201t196 -69h88q123 0 190.5 63.5t73.5 184.5v18v305v19q-12 258 -264 258h-88q-129 0 -196.5 -71t-67.5 -212v-295zM913 561h586v92q0 137 -70.5 209t-183.5 72h-65q-130 0 -198.5 -70t-68.5 -209v-94z" />
<glyph unicode="&#x178;" horiz-adv-x="1134" d="M66 1426q6 8 22 8h59q14 0 22.5 -7t18.5 -24l379 -668l379 668q10 17 18.5 24t22.5 7h60q16 0 22 -8t-2 -23l-449 -772v-600q0 -31 -30 -31h-43q-31 0 -31 31v600l-446 772q-8 15 -2 23zM233 1767v45q0 31 31 31h33q31 0 31 -31v-45q0 -30 -31 -30h-33q-31 0 -31 30z M807 1767v45q0 31 31 31h30q31 0 31 -31v-45q0 -30 -31 -30h-30q-31 0 -31 30z" />
<glyph unicode="&#x2c6;" horiz-adv-x="886" d="M105.5 1117.5q-6.5 13.5 5.5 25.5l264 258q4 3 12.5 10.5t13.5 11.5t13 7.5t16 3.5h25q5 0 9.5 -1t9 -3t7.5 -3.5t8.5 -6t7.5 -6t8 -7t7 -6.5l264 -258q12 -12 5.5 -25.5t-21.5 -13.5h-45q-23 0 -62 39l-211 207l-209 -207q-39 -39 -61 -39h-45q-15 0 -21.5 13.5z" />
<glyph unicode="&#x2dc;" horiz-adv-x="919" d="M109 1327q-13 21 12 39q101 72 176.5 73t173.5 -63q99 -56 141 -54.5t146 67.5q15 6 19.5 3t13.5 -20l22 -31q11 -17 -14 -38q-102 -72 -176.5 -74t-173.5 63q-55 31 -80.5 42.5t-59.5 11t-62 -15t-85 -50.5q-13 -7 -18.5 -3.5t-14.5 19.5z" />
<glyph unicode="&#x2000;" horiz-adv-x="938" />
<glyph unicode="&#x2001;" horiz-adv-x="1876" />
<glyph unicode="&#x2002;" horiz-adv-x="938" />
<glyph unicode="&#x2003;" horiz-adv-x="1876" />
<glyph unicode="&#x2004;" horiz-adv-x="625" />
<glyph unicode="&#x2005;" horiz-adv-x="469" />
<glyph unicode="&#x2006;" horiz-adv-x="312" />
<glyph unicode="&#x2007;" horiz-adv-x="312" />
<glyph unicode="&#x2008;" horiz-adv-x="234" />
<glyph unicode="&#x2009;" horiz-adv-x="375" />
<glyph unicode="&#x200a;" horiz-adv-x="104" />
<glyph unicode="&#x2010;" horiz-adv-x="847" d="M123 496v34q0 31 31 31h540q31 0 31 -31v-34q0 -31 -31 -31h-540q-31 0 -31 31z" />
<glyph unicode="&#x2011;" horiz-adv-x="847" d="M123 496v34q0 31 31 31h540q31 0 31 -31v-34q0 -31 -31 -31h-540q-31 0 -31 31z" />
<glyph unicode="&#x2012;" horiz-adv-x="847" d="M123 496v34q0 31 31 31h540q31 0 31 -31v-34q0 -31 -31 -31h-540q-31 0 -31 31z" />
<glyph unicode="&#x2013;" horiz-adv-x="1271" d="M123 459v35q0 30 31 30h964q31 0 31 -30v-35q0 -31 -31 -31h-964q-31 0 -31 31z" />
<glyph unicode="&#x2014;" horiz-adv-x="1423" d="M123 459v35q0 30 31 30h1116q30 0 30 -30v-35q0 -31 -30 -31h-1116q-31 0 -31 31z" />
<glyph unicode="&#x2018;" horiz-adv-x="372" d="M102 1006v120q0 201 86 308q11 11 25 2l18 -15q15 -13 2 -30q-20 -27 -35.5 -92.5t-15.5 -129.5l-10 -20h68q30 0 30 -31v-112q0 -31 -30 -31h-107q-31 0 -31 31z" />
<glyph unicode="&#x2019;" horiz-adv-x="354" d="M82 1270v112q0 31 31 31h106q31 0 31 -31v-120q0 -202 -88 -308q-3 -4 -11 -4.5t-12 2.5l-18 15q-15 13 -2 30q20 29 35.5 94t15.5 128l8 20h-65q-31 0 -31 31z" />
<glyph unicode="&#x201a;" horiz-adv-x="399" d="M72 31v112q0 31 30 31h107q31 0 31 -31v-120q0 -202 -88 -308q-3 -4 -11 -4.5t-12 2.5l-18 15q-15 13 -2 30q20 27 35.5 92.5t15.5 129.5l8 20h-66q-30 0 -30 31z" />
<glyph unicode="&#x201c;" horiz-adv-x="643" d="M92 999v123q0 198 86 305q4 6 12.5 7t12.5 -4l18 -15q15 -11 2 -31q-20 -28 -35.5 -92t-15.5 -129l-10 -20h67q31 0 31 -31v-113q0 -30 -31 -30h-106q-31 0 -31 30zM383 999v123q0 198 86 305q4 6 12.5 7t12.5 -4l18 -15q15 -11 2 -31q-20 -28 -35.5 -92t-15.5 -129 l-10 -20h67q31 0 31 -31v-113q0 -30 -31 -30h-106q-31 0 -31 30z" />
<glyph unicode="&#x201d;" horiz-adv-x="681" d="M102 1266v112q0 31 31 31h107q30 0 30 -31v-121q0 -201 -88 -307q-3 -4 -10.5 -4.5t-11.5 2.5l-19 15q-15 13 -2 30q20 27 35.5 92t15.5 129l9 21h-66q-31 0 -31 31zM408 1266v112q0 31 30 31h105q30 0 30 -31v-121q0 -200 -86 -307q-3 -4 -11.5 -4.5t-12.5 2.5l-19 15 q-15 13 -2 30q20 28 36 93t16 128l10 21h-66q-30 0 -30 31z" />
<glyph unicode="&#x201e;" horiz-adv-x="655" d="M92 31v112q0 31 31 31h106q31 0 31 -31v-120q0 -202 -88 -308q-3 -4 -10.5 -4.5t-11.5 2.5l-19 15q-15 13 -2 30q20 27 35.5 92.5t15.5 129.5l8 20h-65q-31 0 -31 31zM397 31v112q0 31 31 31h104q31 0 31 -31v-120q0 -201 -86 -308q-3 -4 -11.5 -4.5t-12.5 2.5l-19 15 q-15 13 -2 30q20 27 35.5 92.5t15.5 129.5l11 20h-66q-31 0 -31 31z" />
<glyph unicode="&#x2022;" horiz-adv-x="579" d="M164 659v107q0 68 65 68h117q70 0 70 -68v-107q0 -67 -70 -67h-117q-65 0 -65 67z" />
<glyph unicode="&#x2026;" horiz-adv-x="868" d="M102 31v49q0 31 31 31h51q31 0 31 -31v-49q0 -31 -31 -31h-51q-31 0 -31 31zM377 31v49q0 31 31 31h53q31 0 31 -31v-49q0 -31 -31 -31h-53q-31 0 -31 31zM651 31v49q0 31 31 31h53q31 0 31 -31v-49q0 -31 -31 -31h-53q-31 0 -31 31z" />
<glyph unicode="&#x202f;" horiz-adv-x="375" />
<glyph unicode="&#x2039;" horiz-adv-x="677" d="M113 494v65q0 8 2.5 14t5 8.5t10.5 8t12 8.5l385 291q14 10 25.5 4t11.5 -21v-98q0 -10 -5.5 -18t-11 -12.5t-20.5 -14.5l-268 -203l268 -200q3 -3 9 -7t8.5 -6t6.5 -5.5t6 -6t4 -6t2.5 -7t0.5 -7.5v-101q0 -15 -11.5 -20.5t-25.5 4.5l-385 291q-4 3 -12 8.5t-10.5 8 t-5 8.5t-2.5 14z" />
<glyph unicode="&#x203a;" horiz-adv-x="677" d="M113 180v101q0 5 1.5 9.5t3 7t5.5 7t6.5 6.5t10 7t10.5 8l270 200l-270 203q-15 10 -20.5 14.5t-11 12.5t-5.5 18v98q0 15 11.5 21t25.5 -4l385 -291q4 -3 12 -8.5t10.5 -8t5 -8.5t2.5 -14v-65q0 -8 -2.5 -14t-5 -8.5t-10.5 -8t-12 -8.5l-385 -291q-14 -10 -25.5 -4.5 t-11.5 20.5z" />
<glyph unicode="&#x205f;" horiz-adv-x="469" />
<glyph unicode="&#x20ac;" horiz-adv-x="1396" d="M113 604v43q0 31 30 31h201v125h-201q-30 0 -30 31v40q0 31 30 31h201v113q0 212 106.5 319t305.5 107h127q193 0 298.5 -103.5t112.5 -314.5q0 -13 -8 -21t-20 -8h-47q-12 0 -20.5 8t-8.5 21q-6 171 -77.5 245.5t-229.5 74.5h-127q-163 0 -235 -78t-72 -250v-113h339 q31 0 31 -31v-40q0 -31 -31 -31h-339v-125h339q31 0 31 -31v-43q0 -31 -31 -31h-339v-157q0 -172 72 -250t235 -78h127q158 0 229.5 74.5t77.5 245.5q0 13 8.5 20.5t20.5 7.5h47q28 0 28 -28q-7 -211 -112.5 -314.5t-298.5 -103.5h-127q-199 0 -305.5 107t-106.5 319v157 h-201q-30 0 -30 31z" />
<glyph unicode="&#x2122;" horiz-adv-x="1595" d="M82 1341v62q0 31 31 31h276h213q31 0 31 -31v-62q0 -30 -31 -30h-182v-371q0 -31 -31 -31h-61q-31 0 -31 31v371h-184q-31 0 -31 30zM745 940v463q0 31 31 31h123q24 0 41 -31l188 -338l191 338q18 31 41 31h123q30 0 30 -31v-463q0 -31 -30 -31h-62q-30 0 -30 31v340 l-201 -340q-19 -31 -39 -31h-43q-20 0 -39 31l-201 340v-340q0 -31 -30 -31h-62q-31 0 -31 31z" />
<glyph unicode="&#x25fc;" horiz-adv-x="1024" d="M0 0v1024h1024v-1024h-1024z" />
</font>
</defs>
</svg>
